<mxfile host="Electron" modified="2023-08-24T21:30:20.350Z" agent="Mozilla/5.0 (Macintosh; Intel Mac OS X 10_15_7) AppleWebKit/537.36 (KHTML, like Gecko) draw.io/21.6.8 Chrome/114.0.5735.289 Electron/25.5.0 Safari/537.36" etag="4-CunKRyLXw-vU96fpRJ" version="21.6.8" type="device" pages="5">
  <diagram id="uyie7CmdhE2LTQs9nDsx" name="hla-conceptual">
    <mxGraphModel dx="1242" dy="823" grid="1" gridSize="10" guides="1" tooltips="1" connect="1" arrows="1" fold="1" page="1" pageScale="1" pageWidth="1100" pageHeight="850" math="0" shadow="0">
      <root>
        <mxCell id="0" />
        <mxCell id="1" parent="0" />
        <mxCell id="gbR2nnKf3sATMKuecAOY-1" value="Access Management" style="sketch=0;points=[[0,0,0],[0.25,0,0],[0.5,0,0],[0.75,0,0],[1,0,0],[0,1,0],[0.25,1,0],[0.5,1,0],[0.75,1,0],[1,1,0],[0,0.25,0],[0,0.5,0],[0,0.75,0],[1,0.25,0],[1,0.5,0],[1,0.75,0]];gradientDirection=north;outlineConnect=0;fontColor=#232F3E;gradientColor=#505863;fillColor=#1E262E;strokeColor=#ffffff;dashed=0;verticalLabelPosition=bottom;verticalAlign=top;align=center;html=1;fontSize=12;fontStyle=0;aspect=fixed;shape=mxgraph.aws4.resourceIcon;resIcon=mxgraph.aws4.general;" parent="1" vertex="1">
          <mxGeometry x="260" y="370" width="78" height="78" as="geometry" />
        </mxCell>
        <mxCell id="gbR2nnKf3sATMKuecAOY-29" style="edgeStyle=orthogonalEdgeStyle;rounded=0;jumpStyle=arc;orthogonalLoop=1;jettySize=auto;html=1;" parent="1" source="gbR2nnKf3sATMKuecAOY-2" target="gbR2nnKf3sATMKuecAOY-1" edge="1">
          <mxGeometry relative="1" as="geometry" />
        </mxCell>
        <mxCell id="gbR2nnKf3sATMKuecAOY-30" style="edgeStyle=orthogonalEdgeStyle;rounded=0;jumpStyle=arc;orthogonalLoop=1;jettySize=auto;html=1;" parent="1" source="gbR2nnKf3sATMKuecAOY-2" target="gbR2nnKf3sATMKuecAOY-7" edge="1">
          <mxGeometry relative="1" as="geometry">
            <Array as="points">
              <mxPoint x="110" y="200" />
            </Array>
          </mxGeometry>
        </mxCell>
        <mxCell id="gbR2nnKf3sATMKuecAOY-31" style="edgeStyle=orthogonalEdgeStyle;rounded=0;jumpStyle=arc;orthogonalLoop=1;jettySize=auto;html=1;" parent="1" source="gbR2nnKf3sATMKuecAOY-2" target="gbR2nnKf3sATMKuecAOY-6" edge="1">
          <mxGeometry relative="1" as="geometry">
            <Array as="points">
              <mxPoint x="119" y="330" />
            </Array>
          </mxGeometry>
        </mxCell>
        <mxCell id="gbR2nnKf3sATMKuecAOY-32" style="edgeStyle=orthogonalEdgeStyle;rounded=0;jumpStyle=arc;orthogonalLoop=1;jettySize=auto;html=1;" parent="1" source="gbR2nnKf3sATMKuecAOY-2" target="gbR2nnKf3sATMKuecAOY-4" edge="1">
          <mxGeometry relative="1" as="geometry">
            <mxPoint x="120" y="456" as="sourcePoint" />
            <Array as="points">
              <mxPoint x="130" y="500" />
            </Array>
          </mxGeometry>
        </mxCell>
        <mxCell id="gbR2nnKf3sATMKuecAOY-33" style="edgeStyle=orthogonalEdgeStyle;rounded=0;jumpStyle=arc;orthogonalLoop=1;jettySize=auto;html=1;" parent="1" source="gbR2nnKf3sATMKuecAOY-2" target="gbR2nnKf3sATMKuecAOY-3" edge="1">
          <mxGeometry relative="1" as="geometry">
            <mxPoint x="120" y="456" as="sourcePoint" />
            <Array as="points">
              <mxPoint x="110" y="760" />
              <mxPoint x="610" y="760" />
            </Array>
          </mxGeometry>
        </mxCell>
        <mxCell id="gbR2nnKf3sATMKuecAOY-36" style="edgeStyle=orthogonalEdgeStyle;rounded=0;jumpStyle=arc;orthogonalLoop=1;jettySize=auto;html=1;" parent="1" source="gbR2nnKf3sATMKuecAOY-2" target="gbR2nnKf3sATMKuecAOY-8" edge="1">
          <mxGeometry relative="1" as="geometry">
            <mxPoint x="120" y="456" as="sourcePoint" />
            <Array as="points">
              <mxPoint x="120" y="650" />
            </Array>
          </mxGeometry>
        </mxCell>
        <mxCell id="gbR2nnKf3sATMKuecAOY-2" value="Users" style="sketch=0;outlineConnect=0;fontColor=#232F3E;gradientColor=none;fillColor=#232F3D;strokeColor=none;dashed=0;verticalLabelPosition=bottom;verticalAlign=top;align=center;html=1;fontSize=12;fontStyle=0;aspect=fixed;pointerEvents=1;shape=mxgraph.aws4.users;" parent="1" vertex="1">
          <mxGeometry x="80" y="370" width="78" height="78" as="geometry" />
        </mxCell>
        <mxCell id="gbR2nnKf3sATMKuecAOY-50" style="edgeStyle=orthogonalEdgeStyle;rounded=0;jumpStyle=arc;orthogonalLoop=1;jettySize=auto;html=1;dashed=1;" parent="1" source="gbR2nnKf3sATMKuecAOY-3" target="gbR2nnKf3sATMKuecAOY-1" edge="1">
          <mxGeometry relative="1" as="geometry">
            <Array as="points">
              <mxPoint x="580" y="740" />
              <mxPoint x="290" y="740" />
            </Array>
          </mxGeometry>
        </mxCell>
        <mxCell id="gbR2nnKf3sATMKuecAOY-3" value="Impacts" style="sketch=0;points=[[0,0,0],[0.25,0,0],[0.5,0,0],[0.75,0,0],[1,0,0],[0,1,0],[0.25,1,0],[0.5,1,0],[0.75,1,0],[1,1,0],[0,0.25,0],[0,0.5,0],[0,0.75,0],[1,0.25,0],[1,0.5,0],[1,0.75,0]];gradientDirection=north;outlineConnect=0;fontColor=#232F3E;gradientColor=#505863;fillColor=#1E262E;strokeColor=#ffffff;dashed=0;verticalLabelPosition=bottom;verticalAlign=top;align=center;html=1;fontSize=12;fontStyle=0;aspect=fixed;shape=mxgraph.aws4.resourceIcon;resIcon=mxgraph.aws4.general;" parent="1" vertex="1">
          <mxGeometry x="560" y="600" width="78" height="78" as="geometry" />
        </mxCell>
        <mxCell id="gbR2nnKf3sATMKuecAOY-35" style="edgeStyle=orthogonalEdgeStyle;rounded=0;jumpStyle=arc;orthogonalLoop=1;jettySize=auto;html=1;" parent="1" source="gbR2nnKf3sATMKuecAOY-4" target="gbR2nnKf3sATMKuecAOY-8" edge="1">
          <mxGeometry relative="1" as="geometry">
            <Array as="points">
              <mxPoint x="419" y="510" />
            </Array>
          </mxGeometry>
        </mxCell>
        <mxCell id="gbR2nnKf3sATMKuecAOY-37" style="edgeStyle=orthogonalEdgeStyle;rounded=0;jumpStyle=arc;orthogonalLoop=1;jettySize=auto;html=1;" parent="1" source="gbR2nnKf3sATMKuecAOY-4" target="gbR2nnKf3sATMKuecAOY-3" edge="1">
          <mxGeometry relative="1" as="geometry">
            <Array as="points">
              <mxPoint x="600" y="510" />
            </Array>
          </mxGeometry>
        </mxCell>
        <mxCell id="gbR2nnKf3sATMKuecAOY-48" style="edgeStyle=orthogonalEdgeStyle;rounded=0;jumpStyle=arc;orthogonalLoop=1;jettySize=auto;html=1;dashed=1;" parent="1" source="gbR2nnKf3sATMKuecAOY-4" target="gbR2nnKf3sATMKuecAOY-1" edge="1">
          <mxGeometry relative="1" as="geometry">
            <Array as="points">
              <mxPoint x="310" y="487" />
            </Array>
          </mxGeometry>
        </mxCell>
        <mxCell id="gbR2nnKf3sATMKuecAOY-4" value="Calculations" style="sketch=0;points=[[0,0,0],[0.25,0,0],[0.5,0,0],[0.75,0,0],[1,0,0],[0,1,0],[0.25,1,0],[0.5,1,0],[0.75,1,0],[1,1,0],[0,0.25,0],[0,0.5,0],[0,0.75,0],[1,0.25,0],[1,0.5,0],[1,0.75,0]];gradientDirection=north;outlineConnect=0;fontColor=#232F3E;gradientColor=#505863;fillColor=#1E262E;strokeColor=#ffffff;dashed=0;verticalLabelPosition=bottom;verticalAlign=top;align=center;html=1;fontSize=12;fontStyle=0;aspect=fixed;shape=mxgraph.aws4.resourceIcon;resIcon=mxgraph.aws4.general;" parent="1" vertex="1">
          <mxGeometry x="470" y="448" width="78" height="78" as="geometry" />
        </mxCell>
        <mxCell id="gbR2nnKf3sATMKuecAOY-41" style="edgeStyle=orthogonalEdgeStyle;rounded=0;jumpStyle=arc;orthogonalLoop=1;jettySize=auto;html=1;" parent="1" source="gbR2nnKf3sATMKuecAOY-5" target="gbR2nnKf3sATMKuecAOY-6" edge="1">
          <mxGeometry relative="1" as="geometry">
            <Array as="points">
              <mxPoint x="700" y="340" />
            </Array>
          </mxGeometry>
        </mxCell>
        <mxCell id="gbR2nnKf3sATMKuecAOY-43" style="edgeStyle=orthogonalEdgeStyle;rounded=0;jumpStyle=arc;orthogonalLoop=1;jettySize=auto;html=1;" parent="1" source="gbR2nnKf3sATMKuecAOY-5" target="gbR2nnKf3sATMKuecAOY-4" edge="1">
          <mxGeometry relative="1" as="geometry">
            <Array as="points">
              <mxPoint x="710" y="487" />
            </Array>
          </mxGeometry>
        </mxCell>
        <mxCell id="gbR2nnKf3sATMKuecAOY-44" style="edgeStyle=orthogonalEdgeStyle;rounded=0;jumpStyle=arc;orthogonalLoop=1;jettySize=auto;html=1;" parent="1" source="gbR2nnKf3sATMKuecAOY-5" target="gbR2nnKf3sATMKuecAOY-3" edge="1">
          <mxGeometry relative="1" as="geometry">
            <Array as="points">
              <mxPoint x="730" y="639" />
            </Array>
          </mxGeometry>
        </mxCell>
        <mxCell id="gbR2nnKf3sATMKuecAOY-45" style="edgeStyle=orthogonalEdgeStyle;rounded=0;jumpStyle=arc;orthogonalLoop=1;jettySize=auto;html=1;" parent="1" source="gbR2nnKf3sATMKuecAOY-5" target="gbR2nnKf3sATMKuecAOY-8" edge="1">
          <mxGeometry relative="1" as="geometry">
            <Array as="points">
              <mxPoint x="740" y="720" />
              <mxPoint x="419" y="720" />
            </Array>
          </mxGeometry>
        </mxCell>
        <mxCell id="gbR2nnKf3sATMKuecAOY-5" value="Calculator" style="sketch=0;points=[[0,0,0],[0.25,0,0],[0.5,0,0],[0.75,0,0],[1,0,0],[0,1,0],[0.25,1,0],[0.5,1,0],[0.75,1,0],[1,1,0],[0,0.25,0],[0,0.5,0],[0,0.75,0],[1,0.25,0],[1,0.5,0],[1,0.75,0]];gradientDirection=north;outlineConnect=0;fontColor=#232F3E;gradientColor=#505863;fillColor=#1E262E;strokeColor=#ffffff;dashed=0;verticalLabelPosition=bottom;verticalAlign=top;align=center;html=1;fontSize=12;fontStyle=0;aspect=fixed;shape=mxgraph.aws4.resourceIcon;resIcon=mxgraph.aws4.general;" parent="1" vertex="1">
          <mxGeometry x="680" y="160" width="78" height="78" as="geometry" />
        </mxCell>
        <mxCell id="gbR2nnKf3sATMKuecAOY-39" style="edgeStyle=orthogonalEdgeStyle;rounded=0;jumpStyle=arc;orthogonalLoop=1;jettySize=auto;html=1;" parent="1" source="gbR2nnKf3sATMKuecAOY-7" target="gbR2nnKf3sATMKuecAOY-6" edge="1">
          <mxGeometry relative="1" as="geometry" />
        </mxCell>
        <mxCell id="gbR2nnKf3sATMKuecAOY-40" style="edgeStyle=orthogonalEdgeStyle;rounded=0;jumpStyle=arc;orthogonalLoop=1;jettySize=auto;html=1;" parent="1" source="gbR2nnKf3sATMKuecAOY-7" target="gbR2nnKf3sATMKuecAOY-5" edge="1">
          <mxGeometry relative="1" as="geometry" />
        </mxCell>
        <mxCell id="gbR2nnKf3sATMKuecAOY-46" style="edgeStyle=orthogonalEdgeStyle;rounded=0;jumpStyle=arc;orthogonalLoop=1;jettySize=auto;html=1;dashed=1;" parent="1" source="gbR2nnKf3sATMKuecAOY-7" target="gbR2nnKf3sATMKuecAOY-1" edge="1">
          <mxGeometry relative="1" as="geometry">
            <Array as="points">
              <mxPoint x="290" y="210" />
            </Array>
          </mxGeometry>
        </mxCell>
        <mxCell id="gbR2nnKf3sATMKuecAOY-7" value="Pipeline Processors" style="sketch=0;points=[[0,0,0],[0.25,0,0],[0.5,0,0],[0.75,0,0],[1,0,0],[0,1,0],[0.25,1,0],[0.5,1,0],[0.75,1,0],[1,1,0],[0,0.25,0],[0,0.5,0],[0,0.75,0],[1,0.25,0],[1,0.5,0],[1,0.75,0]];gradientDirection=north;outlineConnect=0;fontColor=#232F3E;gradientColor=#505863;fillColor=#1E262E;strokeColor=#ffffff;dashed=0;verticalLabelPosition=bottom;verticalAlign=top;align=center;html=1;fontSize=12;fontStyle=0;aspect=fixed;shape=mxgraph.aws4.resourceIcon;resIcon=mxgraph.aws4.general;" parent="1" vertex="1">
          <mxGeometry x="470" y="160" width="78" height="78" as="geometry" />
        </mxCell>
        <mxCell id="gbR2nnKf3sATMKuecAOY-49" style="edgeStyle=orthogonalEdgeStyle;rounded=0;jumpStyle=arc;orthogonalLoop=1;jettySize=auto;html=1;dashed=1;" parent="1" source="gbR2nnKf3sATMKuecAOY-8" target="gbR2nnKf3sATMKuecAOY-1" edge="1">
          <mxGeometry relative="1" as="geometry">
            <Array as="points">
              <mxPoint x="299" y="630" />
            </Array>
          </mxGeometry>
        </mxCell>
        <mxCell id="gbR2nnKf3sATMKuecAOY-8" value="Reference Datasets" style="sketch=0;points=[[0,0,0],[0.25,0,0],[0.5,0,0],[0.75,0,0],[1,0,0],[0,1,0],[0.25,1,0],[0.5,1,0],[0.75,1,0],[1,1,0],[0,0.25,0],[0,0.5,0],[0,0.75,0],[1,0.25,0],[1,0.5,0],[1,0.75,0]];gradientDirection=north;outlineConnect=0;fontColor=#232F3E;gradientColor=#505863;fillColor=#1E262E;strokeColor=#ffffff;dashed=0;verticalLabelPosition=bottom;verticalAlign=top;align=center;html=1;fontSize=12;fontStyle=0;aspect=fixed;shape=mxgraph.aws4.resourceIcon;resIcon=mxgraph.aws4.general;" parent="1" vertex="1">
          <mxGeometry x="380" y="600" width="78" height="78" as="geometry" />
        </mxCell>
        <mxCell id="gbR2nnKf3sATMKuecAOY-38" style="edgeStyle=orthogonalEdgeStyle;rounded=0;jumpStyle=arc;orthogonalLoop=1;jettySize=auto;html=1;" parent="1" source="gbR2nnKf3sATMKuecAOY-6" target="gbR2nnKf3sATMKuecAOY-4" edge="1">
          <mxGeometry relative="1" as="geometry" />
        </mxCell>
        <mxCell id="gbR2nnKf3sATMKuecAOY-47" style="edgeStyle=orthogonalEdgeStyle;rounded=0;jumpStyle=arc;orthogonalLoop=1;jettySize=auto;html=1;entryX=0.5;entryY=0;entryDx=0;entryDy=0;entryPerimeter=0;dashed=1;" parent="1" source="gbR2nnKf3sATMKuecAOY-6" target="gbR2nnKf3sATMKuecAOY-1" edge="1">
          <mxGeometry relative="1" as="geometry" />
        </mxCell>
        <mxCell id="gbR2nnKf3sATMKuecAOY-6" value="Pipelines" style="sketch=0;points=[[0,0,0],[0.25,0,0],[0.5,0,0],[0.75,0,0],[1,0,0],[0,1,0],[0.25,1,0],[0.5,1,0],[0.75,1,0],[1,1,0],[0,0.25,0],[0,0.5,0],[0,0.75,0],[1,0.25,0],[1,0.5,0],[1,0.75,0]];gradientDirection=north;outlineConnect=0;fontColor=#232F3E;gradientColor=#505863;fillColor=#1E262E;strokeColor=#ffffff;dashed=0;verticalLabelPosition=bottom;verticalAlign=top;align=center;html=1;fontSize=12;fontStyle=0;aspect=fixed;shape=mxgraph.aws4.resourceIcon;resIcon=mxgraph.aws4.general;" parent="1" vertex="1">
          <mxGeometry x="470" y="300" width="78" height="78" as="geometry" />
        </mxCell>
      </root>
    </mxGraphModel>
  </diagram>
  <diagram id="NPWwuNtzDu9f67vJwqyX" name="layers">
    <mxGraphModel dx="1242" dy="1673" grid="1" gridSize="10" guides="1" tooltips="1" connect="1" arrows="1" fold="1" page="1" pageScale="1" pageWidth="1100" pageHeight="850" math="0" shadow="0">
      <root>
        <mxCell id="0" />
        <mxCell id="1" parent="0" />
        <mxCell id="XzM0VS8USJQEr_pSIOef-7" value="Application&#xa;Integration" style="fillColor=none;strokeColor=#b9b1b1;dashed=0;verticalAlign=top;fontStyle=1;fontColor=#232F3D;" parent="1" vertex="1">
          <mxGeometry x="200" y="-410" width="121" height="410" as="geometry" />
        </mxCell>
        <mxCell id="XzM0VS8USJQEr_pSIOef-2" value="Analytics" style="fillColor=none;strokeColor=#b9b1b1;dashed=0;verticalAlign=top;fontStyle=1;fontColor=#232F3D;" parent="1" vertex="1">
          <mxGeometry x="61" y="-410" width="120" height="410" as="geometry" />
        </mxCell>
        <mxCell id="XzM0VS8USJQEr_pSIOef-4" value="Amazon SQS" style="sketch=0;points=[[0,0,0],[0.25,0,0],[0.5,0,0],[0.75,0,0],[1,0,0],[0,1,0],[0.25,1,0],[0.5,1,0],[0.75,1,0],[1,1,0],[0,0.25,0],[0,0.5,0],[0,0.75,0],[1,0.25,0],[1,0.5,0],[1,0.75,0]];outlineConnect=0;fontColor=#232F3E;gradientColor=#FF4F8B;gradientDirection=north;fillColor=#BC1356;strokeColor=#ffffff;dashed=0;verticalLabelPosition=bottom;verticalAlign=top;align=center;html=1;fontSize=12;fontStyle=0;aspect=fixed;shape=mxgraph.aws4.resourceIcon;resIcon=mxgraph.aws4.sqs;" parent="1" vertex="1">
          <mxGeometry x="221" y="-250" width="78" height="78" as="geometry" />
        </mxCell>
        <mxCell id="XzM0VS8USJQEr_pSIOef-13" value="Compute" style="fillColor=none;strokeColor=#b9b1b1;dashed=0;verticalAlign=top;fontStyle=1;fontColor=#232F3D;" parent="1" vertex="1">
          <mxGeometry x="340" y="-410" width="120" height="520" as="geometry" />
        </mxCell>
        <mxCell id="XzM0VS8USJQEr_pSIOef-14" value="AWS&lt;br&gt;Autoscaling" style="sketch=0;points=[[0,0,0],[0.25,0,0],[0.5,0,0],[0.75,0,0],[1,0,0],[0,1,0],[0.25,1,0],[0.5,1,0],[0.75,1,0],[1,1,0],[0,0.25,0],[0,0.5,0],[0,0.75,0],[1,0.25,0],[1,0.5,0],[1,0.75,0]];outlineConnect=0;fontColor=#232F3E;gradientColor=#F78E04;gradientDirection=north;fillColor=#D05C17;strokeColor=#ffffff;dashed=0;verticalLabelPosition=bottom;verticalAlign=top;align=center;html=1;fontSize=12;fontStyle=0;aspect=fixed;shape=mxgraph.aws4.resourceIcon;resIcon=mxgraph.aws4.auto_scaling3;" parent="1" vertex="1">
          <mxGeometry x="361" y="-370" width="78" height="78" as="geometry" />
        </mxCell>
        <mxCell id="XzM0VS8USJQEr_pSIOef-15" value="AWS Lambda" style="sketch=0;points=[[0,0,0],[0.25,0,0],[0.5,0,0],[0.75,0,0],[1,0,0],[0,1,0],[0.25,1,0],[0.5,1,0],[0.75,1,0],[1,1,0],[0,0.25,0],[0,0.5,0],[0,0.75,0],[1,0.25,0],[1,0.5,0],[1,0.75,0]];outlineConnect=0;fontColor=#232F3E;gradientColor=#F78E04;gradientDirection=north;fillColor=#D05C17;strokeColor=#ffffff;dashed=0;verticalLabelPosition=bottom;verticalAlign=top;align=center;html=1;fontSize=12;fontStyle=0;aspect=fixed;shape=mxgraph.aws4.resourceIcon;resIcon=mxgraph.aws4.lambda;" parent="1" vertex="1">
          <mxGeometry x="361" y="-250" width="78" height="78" as="geometry" />
        </mxCell>
        <mxCell id="XzM0VS8USJQEr_pSIOef-16" value="Database" style="fillColor=none;strokeColor=#b9b1b1;dashed=0;verticalAlign=top;fontStyle=1;fontColor=#232F3D;" parent="1" vertex="1">
          <mxGeometry x="481" y="-410" width="120" height="280" as="geometry" />
        </mxCell>
        <mxCell id="XzM0VS8USJQEr_pSIOef-17" value="Amazon&lt;br&gt;Aurora" style="sketch=0;points=[[0,0,0],[0.25,0,0],[0.5,0,0],[0.75,0,0],[1,0,0],[0,1,0],[0.25,1,0],[0.5,1,0],[0.75,1,0],[1,1,0],[0,0.25,0],[0,0.5,0],[0,0.75,0],[1,0.25,0],[1,0.5,0],[1,0.75,0]];outlineConnect=0;fontColor=#232F3E;gradientColor=#4D72F3;gradientDirection=north;fillColor=#3334B9;strokeColor=#ffffff;dashed=0;verticalLabelPosition=bottom;verticalAlign=top;align=center;html=1;fontSize=12;fontStyle=0;aspect=fixed;shape=mxgraph.aws4.resourceIcon;resIcon=mxgraph.aws4.aurora;" parent="1" vertex="1">
          <mxGeometry x="502" y="-370" width="78" height="78" as="geometry" />
        </mxCell>
        <mxCell id="XzM0VS8USJQEr_pSIOef-18" value="Amazon&lt;br&gt;DynamoDB" style="sketch=0;points=[[0,0,0],[0.25,0,0],[0.5,0,0],[0.75,0,0],[1,0,0],[0,1,0],[0.25,1,0],[0.5,1,0],[0.75,1,0],[1,1,0],[0,0.25,0],[0,0.5,0],[0,0.75,0],[1,0.25,0],[1,0.5,0],[1,0.75,0]];outlineConnect=0;fontColor=#232F3E;gradientColor=#4D72F3;gradientDirection=north;fillColor=#3334B9;strokeColor=#ffffff;dashed=0;verticalLabelPosition=bottom;verticalAlign=top;align=center;html=1;fontSize=12;fontStyle=0;aspect=fixed;shape=mxgraph.aws4.resourceIcon;resIcon=mxgraph.aws4.dynamodb;" parent="1" vertex="1">
          <mxGeometry x="502" y="-250" width="78" height="78" as="geometry" />
        </mxCell>
        <mxCell id="XzM0VS8USJQEr_pSIOef-23" value="Management &amp;&#xa;Governance" style="fillColor=none;strokeColor=#b9b1b1;dashed=0;verticalAlign=top;fontStyle=1;fontColor=#232F3D;" parent="1" vertex="1">
          <mxGeometry x="761" y="-410" width="120" height="520" as="geometry" />
        </mxCell>
        <mxCell id="XzM0VS8USJQEr_pSIOef-25" value="AWS&lt;br&gt;CloudFormation" style="sketch=0;points=[[0,0,0],[0.25,0,0],[0.5,0,0],[0.75,0,0],[1,0,0],[0,1,0],[0.25,1,0],[0.5,1,0],[0.75,1,0],[1,1,0],[0,0.25,0],[0,0.5,0],[0,0.75,0],[1,0.25,0],[1,0.5,0],[1,0.75,0]];points=[[0,0,0],[0.25,0,0],[0.5,0,0],[0.75,0,0],[1,0,0],[0,1,0],[0.25,1,0],[0.5,1,0],[0.75,1,0],[1,1,0],[0,0.25,0],[0,0.5,0],[0,0.75,0],[1,0.25,0],[1,0.5,0],[1,0.75,0]];outlineConnect=0;fontColor=#232F3E;gradientColor=#F34482;gradientDirection=north;fillColor=#BC1356;strokeColor=#ffffff;dashed=0;verticalLabelPosition=bottom;verticalAlign=top;align=center;html=1;fontSize=12;fontStyle=0;aspect=fixed;shape=mxgraph.aws4.resourceIcon;resIcon=mxgraph.aws4.cloudformation;" parent="1" vertex="1">
          <mxGeometry x="782" y="-249" width="78" height="78" as="geometry" />
        </mxCell>
        <mxCell id="XzM0VS8USJQEr_pSIOef-37" value="AWS Services" style="points=[[0,0],[0.25,0],[0.5,0],[0.75,0],[1,0],[1,0.25],[1,0.5],[1,0.75],[1,1],[0.75,1],[0.5,1],[0.25,1],[0,1],[0,0.75],[0,0.5],[0,0.25]];outlineConnect=0;gradientColor=none;html=1;whiteSpace=wrap;fontSize=12;fontStyle=0;container=1;pointerEvents=0;collapsible=0;recursiveResize=0;shape=mxgraph.aws4.group;grIcon=mxgraph.aws4.group_aws_cloud_alt;strokeColor=#232F3E;fillColor=none;verticalAlign=top;align=left;spacingLeft=30;fontColor=#232F3E;dashed=0;" parent="1" vertex="1">
          <mxGeometry x="40" y="-450" width="1140" height="700" as="geometry" />
        </mxCell>
        <mxCell id="XzM0VS8USJQEr_pSIOef-24" value="Amazon&lt;br&gt;CloudWatch" style="sketch=0;points=[[0,0,0],[0.25,0,0],[0.5,0,0],[0.75,0,0],[1,0,0],[0,1,0],[0.25,1,0],[0.5,1,0],[0.75,1,0],[1,1,0],[0,0.25,0],[0,0.5,0],[0,0.75,0],[1,0.25,0],[1,0.5,0],[1,0.75,0]];points=[[0,0,0],[0.25,0,0],[0.5,0,0],[0.75,0,0],[1,0,0],[0,1,0],[0.25,1,0],[0.5,1,0],[0.75,1,0],[1,1,0],[0,0.25,0],[0,0.5,0],[0,0.75,0],[1,0.25,0],[1,0.5,0],[1,0.75,0]];outlineConnect=0;fontColor=#232F3E;gradientColor=#F34482;gradientDirection=north;fillColor=#BC1356;strokeColor=#ffffff;dashed=0;verticalLabelPosition=bottom;verticalAlign=top;align=center;html=1;fontSize=12;fontStyle=0;aspect=fixed;shape=mxgraph.aws4.resourceIcon;resIcon=mxgraph.aws4.cloudwatch_2;" parent="XzM0VS8USJQEr_pSIOef-37" vertex="1">
          <mxGeometry x="742" y="81" width="78" height="78" as="geometry" />
        </mxCell>
        <mxCell id="XzM0VS8USJQEr_pSIOef-26" value="AWS Systems&lt;br&gt;Manager" style="sketch=0;points=[[0,0,0],[0.25,0,0],[0.5,0,0],[0.75,0,0],[1,0,0],[0,1,0],[0.25,1,0],[0.5,1,0],[0.75,1,0],[1,1,0],[0,0.25,0],[0,0.5,0],[0,0.75,0],[1,0.25,0],[1,0.5,0],[1,0.75,0]];points=[[0,0,0],[0.25,0,0],[0.5,0,0],[0.75,0,0],[1,0,0],[0,1,0],[0.25,1,0],[0.5,1,0],[0.75,1,0],[1,1,0],[0,0.25,0],[0,0.5,0],[0,0.75,0],[1,0.25,0],[1,0.5,0],[1,0.75,0]];outlineConnect=0;fontColor=#232F3E;gradientColor=#F34482;gradientDirection=north;fillColor=#BC1356;strokeColor=#ffffff;dashed=0;verticalLabelPosition=bottom;verticalAlign=top;align=center;html=1;fontSize=12;fontStyle=0;aspect=fixed;shape=mxgraph.aws4.resourceIcon;resIcon=mxgraph.aws4.systems_manager;" parent="XzM0VS8USJQEr_pSIOef-37" vertex="1">
          <mxGeometry x="742" y="440" width="78" height="78" as="geometry" />
        </mxCell>
        <mxCell id="2uofd10z0gf6S96ogYLV-1" value="Amazon &lt;br&gt;Athena" style="sketch=0;points=[[0,0,0],[0.25,0,0],[0.5,0,0],[0.75,0,0],[1,0,0],[0,1,0],[0.25,1,0],[0.5,1,0],[0.75,1,0],[1,1,0],[0,0.25,0],[0,0.5,0],[0,0.75,0],[1,0.25,0],[1,0.5,0],[1,0.75,0]];outlineConnect=0;fontColor=#232F3E;gradientColor=#945DF2;gradientDirection=north;fillColor=#5A30B5;strokeColor=#ffffff;dashed=0;verticalLabelPosition=bottom;verticalAlign=top;align=center;html=1;fontSize=12;fontStyle=0;aspect=fixed;shape=mxgraph.aws4.resourceIcon;resIcon=mxgraph.aws4.athena;" parent="XzM0VS8USJQEr_pSIOef-37" vertex="1">
          <mxGeometry x="40" y="81" width="78" height="78" as="geometry" />
        </mxCell>
        <mxCell id="2uofd10z0gf6S96ogYLV-2" value="AWS &lt;br&gt;Clean Rooms" style="sketch=0;points=[[0,0,0],[0.25,0,0],[0.5,0,0],[0.75,0,0],[1,0,0],[0,1,0],[0.25,1,0],[0.5,1,0],[0.75,1,0],[1,1,0],[0,0.25,0],[0,0.5,0],[0,0.75,0],[1,0.25,0],[1,0.5,0],[1,0.75,0]];outlineConnect=0;fontColor=#232F3E;gradientColor=#945DF2;gradientDirection=north;fillColor=#5A30B5;strokeColor=#ffffff;dashed=0;verticalLabelPosition=bottom;verticalAlign=top;align=center;html=1;fontSize=12;fontStyle=0;aspect=fixed;shape=mxgraph.aws4.resourceIcon;resIcon=mxgraph.aws4.clean_rooms;" parent="XzM0VS8USJQEr_pSIOef-37" vertex="1">
          <mxGeometry x="42" y="201" width="78" height="78" as="geometry" />
        </mxCell>
        <mxCell id="XzM0VS8USJQEr_pSIOef-1" value="Amazon Kinesis&lt;br&gt;Firehose" style="sketch=0;points=[[0,0,0],[0.25,0,0],[0.5,0,0],[0.75,0,0],[1,0,0],[0,1,0],[0.25,1,0],[0.5,1,0],[0.75,1,0],[1,1,0],[0,0.25,0],[0,0.5,0],[0,0.75,0],[1,0.25,0],[1,0.5,0],[1,0.75,0]];outlineConnect=0;fontColor=#232F3E;gradientColor=#945DF2;gradientDirection=north;fillColor=#5A30B5;strokeColor=#ffffff;dashed=0;verticalLabelPosition=bottom;verticalAlign=top;align=center;html=1;fontSize=12;fontStyle=0;aspect=fixed;shape=mxgraph.aws4.resourceIcon;resIcon=mxgraph.aws4.kinesis_data_firehose;" parent="XzM0VS8USJQEr_pSIOef-37" vertex="1">
          <mxGeometry x="42" y="321" width="78" height="78" as="geometry" />
        </mxCell>
        <mxCell id="XzM0VS8USJQEr_pSIOef-5" value="Amazon &lt;br&gt;EventBridge" style="sketch=0;points=[[0,0,0],[0.25,0,0],[0.5,0,0],[0.75,0,0],[1,0,0],[0,1,0],[0.25,1,0],[0.5,1,0],[0.75,1,0],[1,1,0],[0,0.25,0],[0,0.5,0],[0,0.75,0],[1,0.25,0],[1,0.5,0],[1,0.75,0]];outlineConnect=0;fontColor=#232F3E;gradientColor=#FF4F8B;gradientDirection=north;fillColor=#BC1356;strokeColor=#ffffff;dashed=0;verticalLabelPosition=bottom;verticalAlign=top;align=center;html=1;fontSize=12;fontStyle=0;aspect=fixed;shape=mxgraph.aws4.resourceIcon;resIcon=mxgraph.aws4.eventbridge;" parent="XzM0VS8USJQEr_pSIOef-37" vertex="1">
          <mxGeometry x="181" y="81" width="78" height="78" as="geometry" />
        </mxCell>
        <mxCell id="XzM0VS8USJQEr_pSIOef-6" value="AWS &lt;br&gt;Step Functions" style="sketch=0;points=[[0,0,0],[0.25,0,0],[0.5,0,0],[0.75,0,0],[1,0,0],[0,1,0],[0.25,1,0],[0.5,1,0],[0.75,1,0],[1,1,0],[0,0.25,0],[0,0.5,0],[0,0.75,0],[1,0.25,0],[1,0.5,0],[1,0.75,0]];outlineConnect=0;fontColor=#232F3E;gradientColor=#FF4F8B;gradientDirection=north;fillColor=#BC1356;strokeColor=#ffffff;dashed=0;verticalLabelPosition=bottom;verticalAlign=top;align=center;html=1;fontSize=12;fontStyle=0;aspect=fixed;shape=mxgraph.aws4.resourceIcon;resIcon=mxgraph.aws4.step_functions;" parent="XzM0VS8USJQEr_pSIOef-37" vertex="1">
          <mxGeometry x="181" y="321" width="78" height="78" as="geometry" />
        </mxCell>
        <mxCell id="XzM0VS8USJQEr_pSIOef-12" value="Business&#xa;Applications" style="fillColor=none;strokeColor=#b9b1b1;dashed=0;verticalAlign=top;fontStyle=1;fontColor=#232F3D;" parent="XzM0VS8USJQEr_pSIOef-37" vertex="1">
          <mxGeometry x="19" y="463" width="120" height="160" as="geometry" />
        </mxCell>
        <mxCell id="XzM0VS8USJQEr_pSIOef-11" value="Amazon SES" style="sketch=0;points=[[0,0,0],[0.25,0,0],[0.5,0,0],[0.75,0,0],[1,0,0],[0,1,0],[0.25,1,0],[0.5,1,0],[0.75,1,0],[1,1,0],[0,0.25,0],[0,0.5,0],[0,0.75,0],[1,0.25,0],[1,0.5,0],[1,0.75,0]];outlineConnect=0;fontColor=#232F3E;gradientColor=#FF5252;gradientDirection=north;fillColor=#C7131F;strokeColor=#ffffff;dashed=0;verticalLabelPosition=bottom;verticalAlign=top;align=center;html=1;fontSize=12;fontStyle=0;aspect=fixed;shape=mxgraph.aws4.resourceIcon;resIcon=mxgraph.aws4.simple_email_service;" parent="XzM0VS8USJQEr_pSIOef-37" vertex="1">
          <mxGeometry x="40" y="503" width="78" height="78" as="geometry" />
        </mxCell>
        <mxCell id="XzM0VS8USJQEr_pSIOef-9" value="Cloud Financial&#xa;Management" style="fillColor=none;strokeColor=#b9b1b1;dashed=0;verticalAlign=top;fontStyle=1;fontColor=#232F3D;" parent="XzM0VS8USJQEr_pSIOef-37" vertex="1">
          <mxGeometry x="160" y="463" width="120" height="160" as="geometry" />
        </mxCell>
        <mxCell id="XzM0VS8USJQEr_pSIOef-8" value="AWS Cost&lt;br&gt;Explorer" style="sketch=0;points=[[0,0,0],[0.25,0,0],[0.5,0,0],[0.75,0,0],[1,0,0],[0,1,0],[0.25,1,0],[0.5,1,0],[0.75,1,0],[1,1,0],[0,0.25,0],[0,0.5,0],[0,0.75,0],[1,0.25,0],[1,0.5,0],[1,0.75,0]];outlineConnect=0;fontColor=#232F3E;gradientColor=#60A337;gradientDirection=north;fillColor=#277116;strokeColor=#ffffff;dashed=0;verticalLabelPosition=bottom;verticalAlign=top;align=center;html=1;fontSize=12;fontStyle=0;aspect=fixed;shape=mxgraph.aws4.resourceIcon;resIcon=mxgraph.aws4.cost_management;" parent="XzM0VS8USJQEr_pSIOef-37" vertex="1">
          <mxGeometry x="181" y="503" width="78" height="78" as="geometry" />
        </mxCell>
        <mxCell id="XzM0VS8USJQEr_pSIOef-19" value="Developer Tools" style="fillColor=none;strokeColor=#b9b1b1;dashed=0;verticalAlign=top;fontStyle=1;fontColor=#232F3D;" parent="XzM0VS8USJQEr_pSIOef-37" vertex="1">
          <mxGeometry x="580" y="40" width="120" height="640" as="geometry" />
        </mxCell>
        <mxCell id="XzM0VS8USJQEr_pSIOef-20" value="AWS Cloud9" style="sketch=0;points=[[0,0,0],[0.25,0,0],[0.5,0,0],[0.75,0,0],[1,0,0],[0,1,0],[0.25,1,0],[0.5,1,0],[0.75,1,0],[1,1,0],[0,0.25,0],[0,0.5,0],[0,0.75,0],[1,0.25,0],[1,0.5,0],[1,0.75,0]];outlineConnect=0;fontColor=#232F3E;gradientColor=#4D72F3;gradientDirection=north;fillColor=#3334B9;strokeColor=#ffffff;dashed=0;verticalLabelPosition=bottom;verticalAlign=top;align=center;html=1;fontSize=12;fontStyle=0;aspect=fixed;shape=mxgraph.aws4.resourceIcon;resIcon=mxgraph.aws4.cloud9;" parent="XzM0VS8USJQEr_pSIOef-37" vertex="1">
          <mxGeometry x="600" y="320" width="78" height="78" as="geometry" />
        </mxCell>
        <mxCell id="XzM0VS8USJQEr_pSIOef-21" value="AWS CDK" style="sketch=0;points=[[0,0,0],[0.25,0,0],[0.5,0,0],[0.75,0,0],[1,0,0],[0,1,0],[0.25,1,0],[0.5,1,0],[0.75,1,0],[1,1,0],[0,0.25,0],[0,0.5,0],[0,0.75,0],[1,0.25,0],[1,0.5,0],[1,0.75,0]];outlineConnect=0;fontColor=#232F3E;gradientColor=#4D72F3;gradientDirection=north;fillColor=#3334B9;strokeColor=#ffffff;dashed=0;verticalLabelPosition=bottom;verticalAlign=top;align=center;html=1;fontSize=12;fontStyle=0;aspect=fixed;shape=mxgraph.aws4.resourceIcon;resIcon=mxgraph.aws4.cloud_development_kit;" parent="XzM0VS8USJQEr_pSIOef-37" vertex="1">
          <mxGeometry x="600" y="200" width="78" height="78" as="geometry" />
        </mxCell>
        <mxCell id="XzM0VS8USJQEr_pSIOef-22" value="AWS X-Ray" style="sketch=0;points=[[0,0,0],[0.25,0,0],[0.5,0,0],[0.75,0,0],[1,0,0],[0,1,0],[0.25,1,0],[0.5,1,0],[0.75,1,0],[1,1,0],[0,0.25,0],[0,0.5,0],[0,0.75,0],[1,0.25,0],[1,0.5,0],[1,0.75,0]];outlineConnect=0;fontColor=#232F3E;gradientColor=#4D72F3;gradientDirection=north;fillColor=#3334B9;strokeColor=#ffffff;dashed=0;verticalLabelPosition=bottom;verticalAlign=top;align=center;html=1;fontSize=12;fontStyle=0;aspect=fixed;shape=mxgraph.aws4.resourceIcon;resIcon=mxgraph.aws4.xray;" parent="XzM0VS8USJQEr_pSIOef-37" vertex="1">
          <mxGeometry x="600" y="560.5" width="78" height="78" as="geometry" />
        </mxCell>
        <mxCell id="2uofd10z0gf6S96ogYLV-3" value="AWS CLI" style="sketch=0;points=[[0,0,0],[0.25,0,0],[0.5,0,0],[0.75,0,0],[1,0,0],[0,1,0],[0.25,1,0],[0.5,1,0],[0.75,1,0],[1,1,0],[0,0.25,0],[0,0.5,0],[0,0.75,0],[1,0.25,0],[1,0.5,0],[1,0.75,0]];outlineConnect=0;fontColor=#232F3E;gradientColor=#4D72F3;gradientDirection=north;fillColor=#3334B9;strokeColor=#ffffff;dashed=0;verticalLabelPosition=bottom;verticalAlign=top;align=center;html=1;fontSize=12;fontStyle=0;aspect=fixed;shape=mxgraph.aws4.resourceIcon;resIcon=mxgraph.aws4.command_line_interface;" parent="XzM0VS8USJQEr_pSIOef-37" vertex="1">
          <mxGeometry x="598" y="441" width="78" height="78" as="geometry" />
        </mxCell>
        <mxCell id="2uofd10z0gf6S96ogYLV-4" value="Amazon&lt;br&gt;Correto" style="sketch=0;points=[[0,0,0],[0.25,0,0],[0.5,0,0],[0.75,0,0],[1,0,0],[0,1,0],[0.25,1,0],[0.5,1,0],[0.75,1,0],[1,1,0],[0,0.25,0],[0,0.5,0],[0,0.75,0],[1,0.25,0],[1,0.5,0],[1,0.75,0]];outlineConnect=0;fontColor=#232F3E;gradientColor=#4D72F3;gradientDirection=north;fillColor=#3334B9;strokeColor=#ffffff;dashed=0;verticalLabelPosition=bottom;verticalAlign=top;align=center;html=1;fontSize=12;fontStyle=0;aspect=fixed;shape=mxgraph.aws4.resourceIcon;resIcon=mxgraph.aws4.corretto;" parent="XzM0VS8USJQEr_pSIOef-37" vertex="1">
          <mxGeometry x="601" y="80" width="78" height="78" as="geometry" />
        </mxCell>
        <mxCell id="2uofd10z0gf6S96ogYLV-14" value="Amazon ECR" style="sketch=0;points=[[0,0,0],[0.25,0,0],[0.5,0,0],[0.75,0,0],[1,0,0],[0,1,0],[0.25,1,0],[0.5,1,0],[0.75,1,0],[1,1,0],[0,0.25,0],[0,0.5,0],[0,0.75,0],[1,0.25,0],[1,0.5,0],[1,0.75,0]];outlineConnect=0;fontColor=#232F3E;gradientColor=#F78E04;gradientDirection=north;fillColor=#D05C17;strokeColor=#ffffff;dashed=0;verticalLabelPosition=bottom;verticalAlign=top;align=center;html=1;fontSize=12;fontStyle=0;aspect=fixed;shape=mxgraph.aws4.resourceIcon;resIcon=mxgraph.aws4.ecr;" parent="XzM0VS8USJQEr_pSIOef-37" vertex="1">
          <mxGeometry x="321" y="321" width="78" height="78" as="geometry" />
        </mxCell>
        <mxCell id="2uofd10z0gf6S96ogYLV-15" value="Amazon ECS" style="sketch=0;points=[[0,0,0],[0.25,0,0],[0.5,0,0],[0.75,0,0],[1,0,0],[0,1,0],[0.25,1,0],[0.5,1,0],[0.75,1,0],[1,1,0],[0,0.25,0],[0,0.5,0],[0,0.75,0],[1,0.25,0],[1,0.5,0],[1,0.75,0]];outlineConnect=0;fontColor=#232F3E;gradientColor=#F78E04;gradientDirection=north;fillColor=#D05C17;strokeColor=#ffffff;dashed=0;verticalLabelPosition=bottom;verticalAlign=top;align=center;html=1;fontSize=12;fontStyle=0;aspect=fixed;shape=mxgraph.aws4.resourceIcon;resIcon=mxgraph.aws4.ecs;" parent="XzM0VS8USJQEr_pSIOef-37" vertex="1">
          <mxGeometry x="321" y="441" width="78" height="78" as="geometry" />
        </mxCell>
        <mxCell id="2uofd10z0gf6S96ogYLV-16" value="AWS CloudTrail" style="sketch=0;points=[[0,0,0],[0.25,0,0],[0.5,0,0],[0.75,0,0],[1,0,0],[0,1,0],[0.25,1,0],[0.5,1,0],[0.75,1,0],[1,1,0],[0,0.25,0],[0,0.5,0],[0,0.75,0],[1,0.25,0],[1,0.5,0],[1,0.75,0]];points=[[0,0,0],[0.25,0,0],[0.5,0,0],[0.75,0,0],[1,0,0],[0,1,0],[0.25,1,0],[0.5,1,0],[0.75,1,0],[1,1,0],[0,0.25,0],[0,0.5,0],[0,0.75,0],[1,0.25,0],[1,0.5,0],[1,0.75,0]];outlineConnect=0;fontColor=#232F3E;gradientColor=#F34482;gradientDirection=north;fillColor=#BC1356;strokeColor=#ffffff;dashed=0;verticalLabelPosition=bottom;verticalAlign=top;align=center;html=1;fontSize=12;fontStyle=0;aspect=fixed;shape=mxgraph.aws4.resourceIcon;resIcon=mxgraph.aws4.cloudtrail;" parent="XzM0VS8USJQEr_pSIOef-37" vertex="1">
          <mxGeometry x="742" y="320" width="78" height="78" as="geometry" />
        </mxCell>
        <mxCell id="2uofd10z0gf6S96ogYLV-5" value="Front-End Web &#xa;&amp; Mobile" style="fillColor=none;strokeColor=#b9b1b1;dashed=0;verticalAlign=top;fontStyle=1;fontColor=#232F3D;" parent="XzM0VS8USJQEr_pSIOef-37" vertex="1">
          <mxGeometry x="441" y="333" width="120" height="147" as="geometry" />
        </mxCell>
        <mxCell id="2uofd10z0gf6S96ogYLV-6" value="Amazon SES" style="sketch=0;points=[[0,0,0],[0.25,0,0],[0.5,0,0],[0.75,0,0],[1,0,0],[0,1,0],[0.25,1,0],[0.5,1,0],[0.75,1,0],[1,1,0],[0,0.25,0],[0,0.5,0],[0,0.75,0],[1,0.25,0],[1,0.5,0],[1,0.75,0]];outlineConnect=0;fontColor=#232F3E;gradientColor=#FF5252;gradientDirection=north;fillColor=#C7131F;strokeColor=#ffffff;dashed=0;verticalLabelPosition=bottom;verticalAlign=top;align=center;html=1;fontSize=12;fontStyle=0;aspect=fixed;shape=mxgraph.aws4.resourceIcon;resIcon=mxgraph.aws4.simple_email_service;" parent="XzM0VS8USJQEr_pSIOef-37" vertex="1">
          <mxGeometry x="462" y="373" width="78" height="78" as="geometry" />
        </mxCell>
        <mxCell id="XzM0VS8USJQEr_pSIOef-27" value="Networking &amp;&#xa;Content Delivery" style="fillColor=none;strokeColor=#b9b1b1;dashed=0;verticalAlign=top;fontStyle=1;fontColor=#232F3D;" parent="XzM0VS8USJQEr_pSIOef-37" vertex="1">
          <mxGeometry x="860" y="40" width="120" height="400" as="geometry" />
        </mxCell>
        <mxCell id="XzM0VS8USJQEr_pSIOef-28" value="Amazon VPC" style="sketch=0;points=[[0,0,0],[0.25,0,0],[0.5,0,0],[0.75,0,0],[1,0,0],[0,1,0],[0.25,1,0],[0.5,1,0],[0.75,1,0],[1,1,0],[0,0.25,0],[0,0.5,0],[0,0.75,0],[1,0.25,0],[1,0.5,0],[1,0.75,0]];outlineConnect=0;fontColor=#232F3E;gradientColor=#945DF2;gradientDirection=north;fillColor=#5A30B5;strokeColor=#ffffff;dashed=0;verticalLabelPosition=bottom;verticalAlign=top;align=center;html=1;fontSize=12;fontStyle=0;aspect=fixed;shape=mxgraph.aws4.resourceIcon;resIcon=mxgraph.aws4.vpc;" parent="XzM0VS8USJQEr_pSIOef-37" vertex="1">
          <mxGeometry x="884" y="322" width="78" height="78" as="geometry" />
        </mxCell>
        <mxCell id="2uofd10z0gf6S96ogYLV-17" value="Amazon&lt;br&gt;API Gateway" style="sketch=0;points=[[0,0,0],[0.25,0,0],[0.5,0,0],[0.75,0,0],[1,0,0],[0,1,0],[0.25,1,0],[0.5,1,0],[0.75,1,0],[1,1,0],[0,0.25,0],[0,0.5,0],[0,0.75,0],[1,0.25,0],[1,0.5,0],[1,0.75,0]];outlineConnect=0;fontColor=#232F3E;gradientColor=#945DF2;gradientDirection=north;fillColor=#5A30B5;strokeColor=#ffffff;dashed=0;verticalLabelPosition=bottom;verticalAlign=top;align=center;html=1;fontSize=12;fontStyle=0;aspect=fixed;shape=mxgraph.aws4.resourceIcon;resIcon=mxgraph.aws4.api_gateway;" parent="XzM0VS8USJQEr_pSIOef-37" vertex="1">
          <mxGeometry x="880" y="82" width="78" height="78" as="geometry" />
        </mxCell>
        <mxCell id="2uofd10z0gf6S96ogYLV-18" value="Amazon&lt;br&gt;CloudFront" style="sketch=0;points=[[0,0,0],[0.25,0,0],[0.5,0,0],[0.75,0,0],[1,0,0],[0,1,0],[0.25,1,0],[0.5,1,0],[0.75,1,0],[1,1,0],[0,0.25,0],[0,0.5,0],[0,0.75,0],[1,0.25,0],[1,0.5,0],[1,0.75,0]];outlineConnect=0;fontColor=#232F3E;gradientColor=#945DF2;gradientDirection=north;fillColor=#5A30B5;strokeColor=#ffffff;dashed=0;verticalLabelPosition=bottom;verticalAlign=top;align=center;html=1;fontSize=12;fontStyle=0;aspect=fixed;shape=mxgraph.aws4.resourceIcon;resIcon=mxgraph.aws4.cloudfront;" parent="XzM0VS8USJQEr_pSIOef-37" vertex="1">
          <mxGeometry x="884" y="202" width="78" height="78" as="geometry" />
        </mxCell>
        <mxCell id="2uofd10z0gf6S96ogYLV-7" value="Machine Learning" style="fillColor=none;strokeColor=#b9b1b1;dashed=0;verticalAlign=top;fontStyle=1;fontColor=#232F3D;" parent="XzM0VS8USJQEr_pSIOef-37" vertex="1">
          <mxGeometry x="441" y="496" width="120" height="160" as="geometry" />
        </mxCell>
        <mxCell id="2uofd10z0gf6S96ogYLV-10" value="Amazon&lt;br&gt;Sagemaker" style="sketch=0;points=[[0,0,0],[0.25,0,0],[0.5,0,0],[0.75,0,0],[1,0,0],[0,1,0],[0.25,1,0],[0.5,1,0],[0.75,1,0],[1,1,0],[0,0.25,0],[0,0.5,0],[0,0.75,0],[1,0.25,0],[1,0.5,0],[1,0.75,0]];outlineConnect=0;fontColor=#232F3E;gradientColor=#4AB29A;gradientDirection=north;fillColor=#116D5B;strokeColor=#ffffff;dashed=0;verticalLabelPosition=bottom;verticalAlign=top;align=center;html=1;fontSize=12;fontStyle=0;aspect=fixed;shape=mxgraph.aws4.resourceIcon;resIcon=mxgraph.aws4.sagemaker;" parent="XzM0VS8USJQEr_pSIOef-37" vertex="1">
          <mxGeometry x="461" y="536" width="78" height="78" as="geometry" />
        </mxCell>
        <mxCell id="XzM0VS8USJQEr_pSIOef-35" value="Storage" style="fillColor=none;strokeColor=#b9b1b1;dashed=0;verticalAlign=top;fontStyle=1;fontColor=#232F3D;" parent="XzM0VS8USJQEr_pSIOef-37" vertex="1">
          <mxGeometry x="860" y="458" width="120" height="160" as="geometry" />
        </mxCell>
        <mxCell id="XzM0VS8USJQEr_pSIOef-36" value="Amazon S3" style="sketch=0;points=[[0,0,0],[0.25,0,0],[0.5,0,0],[0.75,0,0],[1,0,0],[0,1,0],[0.25,1,0],[0.5,1,0],[0.75,1,0],[1,1,0],[0,0.25,0],[0,0.5,0],[0,0.75,0],[1,0.25,0],[1,0.5,0],[1,0.75,0]];outlineConnect=0;fontColor=#232F3E;gradientColor=#60A337;gradientDirection=north;fillColor=#277116;strokeColor=#ffffff;dashed=0;verticalLabelPosition=bottom;verticalAlign=top;align=center;html=1;fontSize=12;fontStyle=0;aspect=fixed;shape=mxgraph.aws4.resourceIcon;resIcon=mxgraph.aws4.s3;" parent="XzM0VS8USJQEr_pSIOef-37" vertex="1">
          <mxGeometry x="881" y="503" width="78" height="78" as="geometry" />
        </mxCell>
        <mxCell id="XzM0VS8USJQEr_pSIOef-38" value="Sustainability Insights Framework (SIF)" style="points=[[0,0],[0.25,0],[0.5,0],[0.75,0],[1,0],[1,0.25],[1,0.5],[1,0.75],[1,1],[0.75,1],[0.5,1],[0.25,1],[0,1],[0,0.75],[0,0.5],[0,0.25]];outlineConnect=0;gradientColor=none;html=1;whiteSpace=wrap;fontSize=12;fontStyle=0;container=1;pointerEvents=0;collapsible=0;recursiveResize=0;shape=mxgraph.aws4.group;grIcon=mxgraph.aws4.group_aws_cloud_alt;strokeColor=#232F3E;fillColor=none;verticalAlign=top;align=left;spacingLeft=30;fontColor=#232F3E;dashed=0;" parent="1" vertex="1">
          <mxGeometry x="41" y="-640" width="1139" height="170" as="geometry" />
        </mxCell>
        <mxCell id="XzM0VS8USJQEr_pSIOef-39" value="Access&lt;br&gt;Management" style="sketch=0;points=[[0,0,0],[0.25,0,0],[0.5,0,0],[0.75,0,0],[1,0,0],[0,1,0],[0.25,1,0],[0.5,1,0],[0.75,1,0],[1,1,0],[0,0.25,0],[0,0.5,0],[0,0.75,0],[1,0.25,0],[1,0.5,0],[1,0.75,0]];gradientDirection=north;outlineConnect=0;fontColor=#232F3E;gradientColor=#505863;fillColor=#1E262E;strokeColor=#ffffff;dashed=0;verticalLabelPosition=bottom;verticalAlign=top;align=center;html=1;fontSize=12;fontStyle=0;aspect=fixed;shape=mxgraph.aws4.resourceIcon;resIcon=mxgraph.aws4.general;" parent="XzM0VS8USJQEr_pSIOef-38" vertex="1">
          <mxGeometry x="39" y="40" width="78" height="78" as="geometry" />
        </mxCell>
        <mxCell id="XzM0VS8USJQEr_pSIOef-40" value="Impacts" style="sketch=0;points=[[0,0,0],[0.25,0,0],[0.5,0,0],[0.75,0,0],[1,0,0],[0,1,0],[0.25,1,0],[0.5,1,0],[0.75,1,0],[1,1,0],[0,0.25,0],[0,0.5,0],[0,0.75,0],[1,0.25,0],[1,0.5,0],[1,0.75,0]];gradientDirection=north;outlineConnect=0;fontColor=#232F3E;gradientColor=#505863;fillColor=#1E262E;strokeColor=#ffffff;dashed=0;verticalLabelPosition=bottom;verticalAlign=top;align=center;html=1;fontSize=12;fontStyle=0;aspect=fixed;shape=mxgraph.aws4.resourceIcon;resIcon=mxgraph.aws4.general;" parent="XzM0VS8USJQEr_pSIOef-38" vertex="1">
          <mxGeometry x="179" y="40" width="78" height="78" as="geometry" />
        </mxCell>
        <mxCell id="XzM0VS8USJQEr_pSIOef-41" value="Reference&lt;br&gt;Datasets" style="sketch=0;points=[[0,0,0],[0.25,0,0],[0.5,0,0],[0.75,0,0],[1,0,0],[0,1,0],[0.25,1,0],[0.5,1,0],[0.75,1,0],[1,1,0],[0,0.25,0],[0,0.5,0],[0,0.75,0],[1,0.25,0],[1,0.5,0],[1,0.75,0]];gradientDirection=north;outlineConnect=0;fontColor=#232F3E;gradientColor=#505863;fillColor=#1E262E;strokeColor=#ffffff;dashed=0;verticalLabelPosition=bottom;verticalAlign=top;align=center;html=1;fontSize=12;fontStyle=0;aspect=fixed;shape=mxgraph.aws4.resourceIcon;resIcon=mxgraph.aws4.general;" parent="XzM0VS8USJQEr_pSIOef-38" vertex="1">
          <mxGeometry x="319" y="40" width="78" height="78" as="geometry" />
        </mxCell>
        <mxCell id="XzM0VS8USJQEr_pSIOef-42" value="Calculations" style="sketch=0;points=[[0,0,0],[0.25,0,0],[0.5,0,0],[0.75,0,0],[1,0,0],[0,1,0],[0.25,1,0],[0.5,1,0],[0.75,1,0],[1,1,0],[0,0.25,0],[0,0.5,0],[0,0.75,0],[1,0.25,0],[1,0.5,0],[1,0.75,0]];gradientDirection=north;outlineConnect=0;fontColor=#232F3E;gradientColor=#505863;fillColor=#1E262E;strokeColor=#ffffff;dashed=0;verticalLabelPosition=bottom;verticalAlign=top;align=center;html=1;fontSize=12;fontStyle=0;aspect=fixed;shape=mxgraph.aws4.resourceIcon;resIcon=mxgraph.aws4.general;" parent="XzM0VS8USJQEr_pSIOef-38" vertex="1">
          <mxGeometry x="459" y="40" width="78" height="78" as="geometry" />
        </mxCell>
        <mxCell id="XzM0VS8USJQEr_pSIOef-43" value="Pipelines" style="sketch=0;points=[[0,0,0],[0.25,0,0],[0.5,0,0],[0.75,0,0],[1,0,0],[0,1,0],[0.25,1,0],[0.5,1,0],[0.75,1,0],[1,1,0],[0,0.25,0],[0,0.5,0],[0,0.75,0],[1,0.25,0],[1,0.5,0],[1,0.75,0]];gradientDirection=north;outlineConnect=0;fontColor=#232F3E;gradientColor=#505863;fillColor=#1E262E;strokeColor=#ffffff;dashed=0;verticalLabelPosition=bottom;verticalAlign=top;align=center;html=1;fontSize=12;fontStyle=0;aspect=fixed;shape=mxgraph.aws4.resourceIcon;resIcon=mxgraph.aws4.general;" parent="XzM0VS8USJQEr_pSIOef-38" vertex="1">
          <mxGeometry x="599" y="40" width="78" height="78" as="geometry" />
        </mxCell>
        <mxCell id="XzM0VS8USJQEr_pSIOef-44" value="Pipeline&lt;br&gt;Processors" style="sketch=0;points=[[0,0,0],[0.25,0,0],[0.5,0,0],[0.75,0,0],[1,0,0],[0,1,0],[0.25,1,0],[0.5,1,0],[0.75,1,0],[1,1,0],[0,0.25,0],[0,0.5,0],[0,0.75,0],[1,0.25,0],[1,0.5,0],[1,0.75,0]];gradientDirection=north;outlineConnect=0;fontColor=#232F3E;gradientColor=#505863;fillColor=#1E262E;strokeColor=#ffffff;dashed=0;verticalLabelPosition=bottom;verticalAlign=top;align=center;html=1;fontSize=12;fontStyle=0;aspect=fixed;shape=mxgraph.aws4.resourceIcon;resIcon=mxgraph.aws4.general;" parent="XzM0VS8USJQEr_pSIOef-38" vertex="1">
          <mxGeometry x="739" y="40" width="78" height="78" as="geometry" />
        </mxCell>
        <mxCell id="XzM0VS8USJQEr_pSIOef-45" value="Calculator" style="sketch=0;points=[[0,0,0],[0.25,0,0],[0.5,0,0],[0.75,0,0],[1,0,0],[0,1,0],[0.25,1,0],[0.5,1,0],[0.75,1,0],[1,1,0],[0,0.25,0],[0,0.5,0],[0,0.75,0],[1,0.25,0],[1,0.5,0],[1,0.75,0]];gradientDirection=north;outlineConnect=0;fontColor=#232F3E;gradientColor=#505863;fillColor=#1E262E;strokeColor=#ffffff;dashed=0;verticalLabelPosition=bottom;verticalAlign=top;align=center;html=1;fontSize=12;fontStyle=0;aspect=fixed;shape=mxgraph.aws4.resourceIcon;resIcon=mxgraph.aws4.general;" parent="XzM0VS8USJQEr_pSIOef-38" vertex="1">
          <mxGeometry x="879" y="40" width="78" height="78" as="geometry" />
        </mxCell>
        <mxCell id="2uofd10z0gf6S96ogYLV-22" value="SIF CLI" style="sketch=0;points=[[0,0,0],[0.25,0,0],[0.5,0,0],[0.75,0,0],[1,0,0],[0,1,0],[0.25,1,0],[0.5,1,0],[0.75,1,0],[1,1,0],[0,0.25,0],[0,0.5,0],[0,0.75,0],[1,0.25,0],[1,0.5,0],[1,0.75,0]];gradientDirection=north;outlineConnect=0;fontColor=#232F3E;gradientColor=#505863;fillColor=#1E262E;strokeColor=#ffffff;dashed=0;verticalLabelPosition=bottom;verticalAlign=top;align=center;html=1;fontSize=12;fontStyle=0;aspect=fixed;shape=mxgraph.aws4.resourceIcon;resIcon=mxgraph.aws4.general;" parent="XzM0VS8USJQEr_pSIOef-38" vertex="1">
          <mxGeometry x="1019" y="40" width="78" height="78" as="geometry" />
        </mxCell>
        <mxCell id="XzM0VS8USJQEr_pSIOef-65" value="Application Layer" style="points=[[0,0],[0.25,0],[0.5,0],[0.75,0],[1,0],[1,0.25],[1,0.5],[1,0.75],[1,1],[0.75,1],[0.5,1],[0.25,1],[0,1],[0,0.75],[0,0.5],[0,0.25]];outlineConnect=0;gradientColor=none;html=1;whiteSpace=wrap;fontSize=12;fontStyle=0;container=1;pointerEvents=0;collapsible=0;recursiveResize=0;shape=mxgraph.aws4.group;grIcon=mxgraph.aws4.group_aws_cloud;strokeColor=#232F3E;fillColor=none;verticalAlign=top;align=left;spacingLeft=30;fontColor=#232F3E;dashed=0;" parent="1" vertex="1">
          <mxGeometry x="40" y="-800" width="1140" height="140" as="geometry" />
        </mxCell>
        <mxCell id="XzM0VS8USJQEr_pSIOef-66" value="Customer&lt;br&gt;Application" style="sketch=0;points=[[0,0,0],[0.25,0,0],[0.5,0,0],[0.75,0,0],[1,0,0],[0,1,0],[0.25,1,0],[0.5,1,0],[0.75,1,0],[1,1,0],[0,0.25,0],[0,0.5,0],[0,0.75,0],[1,0.25,0],[1,0.5,0],[1,0.75,0]];gradientDirection=north;outlineConnect=0;fontColor=#232F3E;gradientColor=#505863;fillColor=#1E262E;strokeColor=#ffffff;dashed=0;verticalLabelPosition=bottom;verticalAlign=top;align=center;html=1;fontSize=12;fontStyle=0;aspect=fixed;shape=mxgraph.aws4.resourceIcon;resIcon=mxgraph.aws4.general;" parent="XzM0VS8USJQEr_pSIOef-65" vertex="1">
          <mxGeometry x="460" y="20" width="78" height="78" as="geometry" />
        </mxCell>
        <mxCell id="2uofd10z0gf6S96ogYLV-21" value="SIF &lt;br&gt;Demo UI" style="sketch=0;points=[[0,0,0],[0.25,0,0],[0.5,0,0],[0.75,0,0],[1,0,0],[0,1,0],[0.25,1,0],[0.5,1,0],[0.75,1,0],[1,1,0],[0,0.25,0],[0,0.5,0],[0,0.75,0],[1,0.25,0],[1,0.5,0],[1,0.75,0]];gradientDirection=north;outlineConnect=0;fontColor=#232F3E;gradientColor=#505863;fillColor=#1E262E;strokeColor=#ffffff;dashed=0;verticalLabelPosition=bottom;verticalAlign=top;align=center;html=1;fontSize=12;fontStyle=0;aspect=fixed;shape=mxgraph.aws4.resourceIcon;resIcon=mxgraph.aws4.general;" parent="XzM0VS8USJQEr_pSIOef-65" vertex="1">
          <mxGeometry x="600" y="20" width="78" height="78" as="geometry" />
        </mxCell>
        <mxCell id="XzM0VS8USJQEr_pSIOef-63" style="edgeStyle=orthogonalEdgeStyle;rounded=0;orthogonalLoop=1;jettySize=auto;html=1;exitX=0.5;exitY=1;exitDx=0;exitDy=0;" parent="1" edge="1">
          <mxGeometry relative="1" as="geometry">
            <mxPoint x="969" y="624" as="sourcePoint" />
            <mxPoint x="969" y="624" as="targetPoint" />
          </mxGeometry>
        </mxCell>
        <mxCell id="XzM0VS8USJQEr_pSIOef-29" value="Security, Identity&#xa;&amp; Compliance" style="fillColor=none;strokeColor=#b9b1b1;dashed=0;verticalAlign=top;fontStyle=1;fontColor=#232F3D;" parent="1" vertex="1">
          <mxGeometry x="1040" y="-409.5" width="120" height="520" as="geometry" />
        </mxCell>
        <mxCell id="XzM0VS8USJQEr_pSIOef-32" value="AWS KMS" style="sketch=0;points=[[0,0,0],[0.25,0,0],[0.5,0,0],[0.75,0,0],[1,0,0],[0,1,0],[0.25,1,0],[0.5,1,0],[0.75,1,0],[1,1,0],[0,0.25,0],[0,0.5,0],[0,0.75,0],[1,0.25,0],[1,0.5,0],[1,0.75,0]];outlineConnect=0;fontColor=#232F3E;gradientColor=#F54749;gradientDirection=north;fillColor=#C7131F;strokeColor=#ffffff;dashed=0;verticalLabelPosition=bottom;verticalAlign=top;align=center;html=1;fontSize=12;fontStyle=0;aspect=fixed;shape=mxgraph.aws4.resourceIcon;resIcon=mxgraph.aws4.key_management_service;" parent="1" vertex="1">
          <mxGeometry x="1059" y="-129.5" width="78" height="78" as="geometry" />
        </mxCell>
        <mxCell id="XzM0VS8USJQEr_pSIOef-31" value="AWS IAM" style="sketch=0;points=[[0,0,0],[0.25,0,0],[0.5,0,0],[0.75,0,0],[1,0,0],[0,1,0],[0.25,1,0],[0.5,1,0],[0.75,1,0],[1,1,0],[0,0.25,0],[0,0.5,0],[0,0.75,0],[1,0.25,0],[1,0.5,0],[1,0.75,0]];outlineConnect=0;fontColor=#232F3E;gradientColor=#F54749;gradientDirection=north;fillColor=#C7131F;strokeColor=#ffffff;dashed=0;verticalLabelPosition=bottom;verticalAlign=top;align=center;html=1;fontSize=12;fontStyle=0;aspect=fixed;shape=mxgraph.aws4.resourceIcon;resIcon=mxgraph.aws4.identity_and_access_management;" parent="1" vertex="1">
          <mxGeometry x="1059" y="-249.5" width="78" height="78" as="geometry" />
        </mxCell>
        <mxCell id="XzM0VS8USJQEr_pSIOef-33" value="AWS Secrets&lt;br&gt;Manager" style="sketch=0;points=[[0,0,0],[0.25,0,0],[0.5,0,0],[0.75,0,0],[1,0,0],[0,1,0],[0.25,1,0],[0.5,1,0],[0.75,1,0],[1,1,0],[0,0.25,0],[0,0.5,0],[0,0.75,0],[1,0.25,0],[1,0.5,0],[1,0.75,0]];outlineConnect=0;fontColor=#232F3E;gradientColor=#F54749;gradientDirection=north;fillColor=#C7131F;strokeColor=#ffffff;dashed=0;verticalLabelPosition=bottom;verticalAlign=top;align=center;html=1;fontSize=12;fontStyle=0;aspect=fixed;shape=mxgraph.aws4.resourceIcon;resIcon=mxgraph.aws4.secrets_manager;" parent="1" vertex="1">
          <mxGeometry x="1059" y="-9.5" width="78" height="78" as="geometry" />
        </mxCell>
        <mxCell id="XzM0VS8USJQEr_pSIOef-30" value="Amazon&lt;br&gt;Cognito" style="sketch=0;points=[[0,0,0],[0.25,0,0],[0.5,0,0],[0.75,0,0],[1,0,0],[0,1,0],[0.25,1,0],[0.5,1,0],[0.75,1,0],[1,1,0],[0,0.25,0],[0,0.5,0],[0,0.75,0],[1,0.25,0],[1,0.5,0],[1,0.75,0]];outlineConnect=0;fontColor=#232F3E;gradientColor=#F54749;gradientDirection=north;fillColor=#C7131F;strokeColor=#ffffff;dashed=0;verticalLabelPosition=bottom;verticalAlign=top;align=center;html=1;fontSize=12;fontStyle=0;aspect=fixed;shape=mxgraph.aws4.resourceIcon;resIcon=mxgraph.aws4.cognito;" parent="1" vertex="1">
          <mxGeometry x="1059" y="-368.5" width="78" height="78" as="geometry" />
        </mxCell>
      </root>
    </mxGraphModel>
  </diagram>
  <diagram id="iRrvGtO5t2jQv-W46BEk" name="infra-single-mode">
    <mxGraphModel dx="1314" dy="2051" grid="1" gridSize="10" guides="1" tooltips="1" connect="1" arrows="1" fold="1" page="1" pageScale="1" pageWidth="1100" pageHeight="850" math="0" shadow="0">
      <root>
        <mxCell id="0" />
        <mxCell id="1" parent="0" />
        <mxCell id="F6eTnZbCmIIg6JIoKb2p-5" value="Region" style="points=[[0,0],[0.25,0],[0.5,0],[0.75,0],[1,0],[1,0.25],[1,0.5],[1,0.75],[1,1],[0.75,1],[0.5,1],[0.25,1],[0,1],[0,0.75],[0,0.5],[0,0.25]];outlineConnect=0;gradientColor=none;html=1;whiteSpace=wrap;fontSize=12;fontStyle=0;container=1;pointerEvents=0;collapsible=0;recursiveResize=0;shape=mxgraph.aws4.group;grIcon=mxgraph.aws4.group_region;strokeColor=#147EBA;fillColor=none;verticalAlign=top;align=left;spacingLeft=30;fontColor=#147EBA;dashed=1;" parent="1" vertex="1">
          <mxGeometry x="210" y="-770" width="760" height="790" as="geometry" />
        </mxCell>
        <mxCell id="F6eTnZbCmIIg6JIoKb2p-6" value="AWS Cloud" style="points=[[0,0],[0.25,0],[0.5,0],[0.75,0],[1,0],[1,0.25],[1,0.5],[1,0.75],[1,1],[0.75,1],[0.5,1],[0.25,1],[0,1],[0,0.75],[0,0.5],[0,0.25]];outlineConnect=0;gradientColor=none;html=1;whiteSpace=wrap;fontSize=12;fontStyle=0;container=1;pointerEvents=0;collapsible=0;recursiveResize=0;shape=mxgraph.aws4.group;grIcon=mxgraph.aws4.group_aws_cloud_alt;strokeColor=#232F3E;fillColor=none;verticalAlign=top;align=left;spacingLeft=30;fontColor=#232F3E;dashed=0;" parent="1" vertex="1">
          <mxGeometry x="190" y="-800" width="800" height="840" as="geometry" />
        </mxCell>
        <mxCell id="27N3MjeAmNyUa1S-tsTZ-1" value="SIF Environment" style="points=[[0,0],[0.25,0],[0.5,0],[0.75,0],[1,0],[1,0.25],[1,0.5],[1,0.75],[1,1],[0.75,1],[0.5,1],[0.25,1],[0,1],[0,0.75],[0,0.5],[0,0.25]];outlineConnect=0;gradientColor=none;html=1;whiteSpace=wrap;fontSize=12;fontStyle=0;container=1;pointerEvents=0;collapsible=0;recursiveResize=0;shape=mxgraph.aws4.group;grIcon=mxgraph.aws4.group_security_group;grStroke=0;strokeColor=#147EBA;fillColor=#E6F2F8;verticalAlign=top;align=left;spacingLeft=30;fontColor=#147EBA;dashed=0;" parent="F6eTnZbCmIIg6JIoKb2p-6" vertex="1">
          <mxGeometry x="48" y="70" width="602" height="730" as="geometry" />
        </mxCell>
        <mxCell id="F6eTnZbCmIIg6JIoKb2p-1" value="Shared SIF Environment Infrastructure" style="fillColor=none;strokeColor=#5A6C86;dashed=1;verticalAlign=top;fontStyle=0;fontColor=#5A6C86;labelBackgroundColor=none;" parent="27N3MjeAmNyUa1S-tsTZ-1" vertex="1">
          <mxGeometry x="22.5" y="40" width="407.5" height="320" as="geometry" />
        </mxCell>
        <mxCell id="F6eTnZbCmIIg6JIoKb2p-34" value="Amazon Aurora&lt;br&gt;Serverless V2&lt;br&gt;Cluster" style="sketch=0;points=[[0,0,0],[0.25,0,0],[0.5,0,0],[0.75,0,0],[1,0,0],[0,1,0],[0.25,1,0],[0.5,1,0],[0.75,1,0],[1,1,0],[0,0.25,0],[0,0.5,0],[0,0.75,0],[1,0.25,0],[1,0.5,0],[1,0.75,0]];outlineConnect=0;fontColor=#232F3E;gradientColor=#4D72F3;gradientDirection=north;fillColor=#3334B9;strokeColor=#ffffff;dashed=0;verticalLabelPosition=bottom;verticalAlign=top;align=center;html=1;fontSize=12;fontStyle=0;aspect=fixed;shape=mxgraph.aws4.resourceIcon;resIcon=mxgraph.aws4.aurora;" parent="27N3MjeAmNyUa1S-tsTZ-1" vertex="1">
          <mxGeometry x="261" y="120" width="78" height="78" as="geometry" />
        </mxCell>
        <mxCell id="F6eTnZbCmIIg6JIoKb2p-35" value="VPC" style="points=[[0,0],[0.25,0],[0.5,0],[0.75,0],[1,0],[1,0.25],[1,0.5],[1,0.75],[1,1],[0.75,1],[0.5,1],[0.25,1],[0,1],[0,0.75],[0,0.5],[0,0.25]];outlineConnect=0;gradientColor=none;html=1;whiteSpace=wrap;fontSize=12;fontStyle=0;container=1;pointerEvents=0;collapsible=0;recursiveResize=0;shape=mxgraph.aws4.group;grIcon=mxgraph.aws4.group_vpc;strokeColor=#248814;fillColor=none;verticalAlign=top;align=left;spacingLeft=30;fontColor=#AAB7B8;dashed=0;" parent="27N3MjeAmNyUa1S-tsTZ-1" vertex="1">
          <mxGeometry x="221" y="80" width="160" height="180" as="geometry" />
        </mxCell>
        <mxCell id="F6eTnZbCmIIg6JIoKb2p-36" value="Amazon VPN Client" style="sketch=0;points=[[0,0,0],[0.25,0,0],[0.5,0,0],[0.75,0,0],[1,0,0],[0,1,0],[0.25,1,0],[0.5,1,0],[0.75,1,0],[1,1,0],[0,0.25,0],[0,0.5,0],[0,0.75,0],[1,0.25,0],[1,0.5,0],[1,0.75,0]];outlineConnect=0;fontColor=#232F3E;gradientColor=#945DF2;gradientDirection=north;fillColor=#5A30B5;strokeColor=#ffffff;dashed=0;verticalLabelPosition=bottom;verticalAlign=top;align=center;html=1;fontSize=12;fontStyle=0;aspect=fixed;shape=mxgraph.aws4.resourceIcon;resIcon=mxgraph.aws4.client_vpn;" parent="27N3MjeAmNyUa1S-tsTZ-1" vertex="1">
          <mxGeometry x="62" y="250" width="78" height="78" as="geometry" />
        </mxCell>
        <mxCell id="F6eTnZbCmIIg6JIoKb2p-42" style="edgeStyle=orthogonalEdgeStyle;rounded=0;orthogonalLoop=1;jettySize=auto;html=1;" parent="27N3MjeAmNyUa1S-tsTZ-1" source="F6eTnZbCmIIg6JIoKb2p-29" target="F6eTnZbCmIIg6JIoKb2p-35" edge="1">
          <mxGeometry relative="1" as="geometry">
            <Array as="points">
              <mxPoint x="162" y="120" />
              <mxPoint x="162" y="120" />
            </Array>
          </mxGeometry>
        </mxCell>
        <mxCell id="F6eTnZbCmIIg6JIoKb2p-29" value="AWS CloudFormation" style="sketch=0;points=[[0,0,0],[0.25,0,0],[0.5,0,0],[0.75,0,0],[1,0,0],[0,1,0],[0.25,1,0],[0.5,1,0],[0.75,1,0],[1,1,0],[0,0.25,0],[0,0.5,0],[0,0.75,0],[1,0.25,0],[1,0.5,0],[1,0.75,0]];points=[[0,0,0],[0.25,0,0],[0.5,0,0],[0.75,0,0],[1,0,0],[0,1,0],[0.25,1,0],[0.5,1,0],[0.75,1,0],[1,1,0],[0,0.25,0],[0,0.5,0],[0,0.75,0],[1,0.25,0],[1,0.5,0],[1,0.75,0]];outlineConnect=0;fontColor=#232F3E;gradientColor=#F34482;gradientDirection=north;fillColor=#BC1356;strokeColor=#ffffff;dashed=0;verticalLabelPosition=bottom;verticalAlign=top;align=center;html=1;fontSize=12;fontStyle=0;aspect=fixed;shape=mxgraph.aws4.resourceIcon;resIcon=mxgraph.aws4.cloudformation;" parent="27N3MjeAmNyUa1S-tsTZ-1" vertex="1">
          <mxGeometry x="62" y="80" width="78" height="78" as="geometry" />
        </mxCell>
        <mxCell id="F6eTnZbCmIIg6JIoKb2p-37" style="edgeStyle=orthogonalEdgeStyle;rounded=0;orthogonalLoop=1;jettySize=auto;html=1;dashed=1;" parent="27N3MjeAmNyUa1S-tsTZ-1" source="F6eTnZbCmIIg6JIoKb2p-29" target="F6eTnZbCmIIg6JIoKb2p-36" edge="1">
          <mxGeometry relative="1" as="geometry" />
        </mxCell>
        <mxCell id="F6eTnZbCmIIg6JIoKb2p-2" value="SIF Instance Silo" style="fillColor=none;strokeColor=#5A6C86;dashed=1;verticalAlign=top;fontStyle=0;fontColor=#5A6C86;labelBackgroundColor=none;" parent="27N3MjeAmNyUa1S-tsTZ-1" vertex="1">
          <mxGeometry x="21.5" y="380" width="560" height="330" as="geometry" />
        </mxCell>
        <mxCell id="F6eTnZbCmIIg6JIoKb2p-4" value="admin" style="sketch=0;outlineConnect=0;gradientColor=none;fontColor=#545B64;strokeColor=none;fillColor=#879196;dashed=0;verticalLabelPosition=bottom;verticalAlign=top;align=center;html=1;fontSize=12;fontStyle=0;aspect=fixed;shape=mxgraph.aws4.illustration_users;pointerEvents=1;labelBackgroundColor=none;" parent="27N3MjeAmNyUa1S-tsTZ-1" vertex="1">
          <mxGeometry x="-179" y="580" width="78" height="78" as="geometry" />
        </mxCell>
        <mxCell id="F6eTnZbCmIIg6JIoKb2p-9" value="AWS&lt;br&gt;CloudFormation" style="sketch=0;points=[[0,0,0],[0.25,0,0],[0.5,0,0],[0.75,0,0],[1,0,0],[0,1,0],[0.25,1,0],[0.5,1,0],[0.75,1,0],[1,1,0],[0,0.25,0],[0,0.5,0],[0,0.75,0],[1,0.25,0],[1,0.5,0],[1,0.75,0]];points=[[0,0,0],[0.25,0,0],[0.5,0,0],[0.75,0,0],[1,0,0],[0,1,0],[0.25,1,0],[0.5,1,0],[0.75,1,0],[1,1,0],[0,0.25,0],[0,0.5,0],[0,0.75,0],[1,0.25,0],[1,0.5,0],[1,0.75,0]];outlineConnect=0;fontColor=#232F3E;gradientColor=#F34482;gradientDirection=north;fillColor=#BC1356;strokeColor=#ffffff;dashed=0;verticalLabelPosition=bottom;verticalAlign=top;align=center;html=1;fontSize=12;fontStyle=0;aspect=fixed;shape=mxgraph.aws4.resourceIcon;resIcon=mxgraph.aws4.cloudformation;" parent="27N3MjeAmNyUa1S-tsTZ-1" vertex="1">
          <mxGeometry x="51.5" y="580" width="78" height="78" as="geometry" />
        </mxCell>
        <mxCell id="F6eTnZbCmIIg6JIoKb2p-3" value="CDK DEPLOY" style="edgeStyle=none;html=1;labelBackgroundColor=none;fontColor=#000000;strokeColor=#000000;" parent="27N3MjeAmNyUa1S-tsTZ-1" source="F6eTnZbCmIIg6JIoKb2p-4" target="F6eTnZbCmIIg6JIoKb2p-9" edge="1">
          <mxGeometry x="-0.3947" y="15" relative="1" as="geometry">
            <mxPoint x="71" y="635" as="targetPoint" />
            <mxPoint as="offset" />
          </mxGeometry>
        </mxCell>
        <mxCell id="ZZN0KIGfFMa9tZdwRJfm-6" value="Pipeline&lt;br&gt;Processors" style="sketch=0;points=[[0,0,0],[0.25,0,0],[0.5,0,0],[0.75,0,0],[1,0,0],[0,1,0],[0.25,1,0],[0.5,1,0],[0.75,1,0],[1,1,0],[0,0.25,0],[0,0.5,0],[0,0.75,0],[1,0.25,0],[1,0.5,0],[1,0.75,0]];gradientDirection=north;outlineConnect=0;fontColor=#232F3E;gradientColor=#505863;fillColor=#1E262E;strokeColor=#ffffff;dashed=0;verticalLabelPosition=bottom;verticalAlign=top;align=center;html=1;fontSize=12;fontStyle=0;aspect=fixed;shape=mxgraph.aws4.resourceIcon;resIcon=mxgraph.aws4.general;" parent="27N3MjeAmNyUa1S-tsTZ-1" vertex="1">
          <mxGeometry x="330.5" y="580" width="78" height="78" as="geometry" />
        </mxCell>
        <mxCell id="ZZN0KIGfFMa9tZdwRJfm-13" style="edgeStyle=orthogonalEdgeStyle;rounded=0;orthogonalLoop=1;jettySize=auto;html=1;" parent="27N3MjeAmNyUa1S-tsTZ-1" source="F6eTnZbCmIIg6JIoKb2p-9" target="ZZN0KIGfFMa9tZdwRJfm-6" edge="1">
          <mxGeometry relative="1" as="geometry">
            <Array as="points">
              <mxPoint x="90.5" y="550" />
              <mxPoint x="369.5" y="550" />
            </Array>
          </mxGeometry>
        </mxCell>
        <mxCell id="ZZN0KIGfFMa9tZdwRJfm-1" value="Access&lt;br&gt;Management" style="sketch=0;points=[[0,0,0],[0.25,0,0],[0.5,0,0],[0.75,0,0],[1,0,0],[0,1,0],[0.25,1,0],[0.5,1,0],[0.75,1,0],[1,1,0],[0,0.25,0],[0,0.5,0],[0,0.75,0],[1,0.25,0],[1,0.5,0],[1,0.75,0]];gradientDirection=north;outlineConnect=0;fontColor=#232F3E;gradientColor=#505863;fillColor=#1E262E;strokeColor=#ffffff;dashed=0;verticalLabelPosition=bottom;verticalAlign=top;align=center;html=1;fontSize=12;fontStyle=0;aspect=fixed;shape=mxgraph.aws4.resourceIcon;resIcon=mxgraph.aws4.general;" parent="27N3MjeAmNyUa1S-tsTZ-1" vertex="1">
          <mxGeometry x="51.5" y="420" width="78" height="78" as="geometry" />
        </mxCell>
        <mxCell id="ZZN0KIGfFMa9tZdwRJfm-2" value="Impacts" style="sketch=0;points=[[0,0,0],[0.25,0,0],[0.5,0,0],[0.75,0,0],[1,0,0],[0,1,0],[0.25,1,0],[0.5,1,0],[0.75,1,0],[1,1,0],[0,0.25,0],[0,0.5,0],[0,0.75,0],[1,0.25,0],[1,0.5,0],[1,0.75,0]];gradientDirection=north;outlineConnect=0;fontColor=#232F3E;gradientColor=#505863;fillColor=#1E262E;strokeColor=#ffffff;dashed=0;verticalLabelPosition=bottom;verticalAlign=top;align=center;html=1;fontSize=12;fontStyle=0;aspect=fixed;shape=mxgraph.aws4.resourceIcon;resIcon=mxgraph.aws4.general;" parent="27N3MjeAmNyUa1S-tsTZ-1" vertex="1">
          <mxGeometry x="190.5" y="420" width="78" height="78" as="geometry" />
        </mxCell>
        <mxCell id="ZZN0KIGfFMa9tZdwRJfm-3" value="Reference&lt;br&gt;Datasets" style="sketch=0;points=[[0,0,0],[0.25,0,0],[0.5,0,0],[0.75,0,0],[1,0,0],[0,1,0],[0.25,1,0],[0.5,1,0],[0.75,1,0],[1,1,0],[0,0.25,0],[0,0.5,0],[0,0.75,0],[1,0.25,0],[1,0.5,0],[1,0.75,0]];gradientDirection=north;outlineConnect=0;fontColor=#232F3E;gradientColor=#505863;fillColor=#1E262E;strokeColor=#ffffff;dashed=0;verticalLabelPosition=bottom;verticalAlign=top;align=center;html=1;fontSize=12;fontStyle=0;aspect=fixed;shape=mxgraph.aws4.resourceIcon;resIcon=mxgraph.aws4.general;" parent="27N3MjeAmNyUa1S-tsTZ-1" vertex="1">
          <mxGeometry x="330.5" y="420" width="78" height="78" as="geometry" />
        </mxCell>
        <mxCell id="ZZN0KIGfFMa9tZdwRJfm-4" value="Calculations" style="sketch=0;points=[[0,0,0],[0.25,0,0],[0.5,0,0],[0.75,0,0],[1,0,0],[0,1,0],[0.25,1,0],[0.5,1,0],[0.75,1,0],[1,1,0],[0,0.25,0],[0,0.5,0],[0,0.75,0],[1,0.25,0],[1,0.5,0],[1,0.75,0]];gradientDirection=north;outlineConnect=0;fontColor=#232F3E;gradientColor=#505863;fillColor=#1E262E;strokeColor=#ffffff;dashed=0;verticalLabelPosition=bottom;verticalAlign=top;align=center;html=1;fontSize=12;fontStyle=0;aspect=fixed;shape=mxgraph.aws4.resourceIcon;resIcon=mxgraph.aws4.general;" parent="27N3MjeAmNyUa1S-tsTZ-1" vertex="1">
          <mxGeometry x="471.5" y="420" width="78" height="78" as="geometry" />
        </mxCell>
        <mxCell id="ZZN0KIGfFMa9tZdwRJfm-5" value="Pipelines" style="sketch=0;points=[[0,0,0],[0.25,0,0],[0.5,0,0],[0.75,0,0],[1,0,0],[0,1,0],[0.25,1,0],[0.5,1,0],[0.75,1,0],[1,1,0],[0,0.25,0],[0,0.5,0],[0,0.75,0],[1,0.25,0],[1,0.5,0],[1,0.75,0]];gradientDirection=north;outlineConnect=0;fontColor=#232F3E;gradientColor=#505863;fillColor=#1E262E;strokeColor=#ffffff;dashed=0;verticalLabelPosition=bottom;verticalAlign=top;align=center;html=1;fontSize=12;fontStyle=0;aspect=fixed;shape=mxgraph.aws4.resourceIcon;resIcon=mxgraph.aws4.general;" parent="27N3MjeAmNyUa1S-tsTZ-1" vertex="1">
          <mxGeometry x="190.5" y="580" width="78" height="78" as="geometry" />
        </mxCell>
        <mxCell id="ZZN0KIGfFMa9tZdwRJfm-7" value="Calculator" style="sketch=0;points=[[0,0,0],[0.25,0,0],[0.5,0,0],[0.75,0,0],[1,0,0],[0,1,0],[0.25,1,0],[0.5,1,0],[0.75,1,0],[1,1,0],[0,0.25,0],[0,0.5,0],[0,0.75,0],[1,0.25,0],[1,0.5,0],[1,0.75,0]];gradientDirection=north;outlineConnect=0;fontColor=#232F3E;gradientColor=#505863;fillColor=#1E262E;strokeColor=#ffffff;dashed=0;verticalLabelPosition=bottom;verticalAlign=top;align=center;html=1;fontSize=12;fontStyle=0;aspect=fixed;shape=mxgraph.aws4.resourceIcon;resIcon=mxgraph.aws4.general;" parent="27N3MjeAmNyUa1S-tsTZ-1" vertex="1">
          <mxGeometry x="471.5" y="580" width="78" height="78" as="geometry" />
        </mxCell>
        <mxCell id="ZZN0KIGfFMa9tZdwRJfm-8" style="edgeStyle=orthogonalEdgeStyle;rounded=0;orthogonalLoop=1;jettySize=auto;html=1;" parent="27N3MjeAmNyUa1S-tsTZ-1" source="F6eTnZbCmIIg6JIoKb2p-9" target="ZZN0KIGfFMa9tZdwRJfm-1" edge="1">
          <mxGeometry relative="1" as="geometry" />
        </mxCell>
        <mxCell id="ZZN0KIGfFMa9tZdwRJfm-9" style="edgeStyle=orthogonalEdgeStyle;rounded=0;orthogonalLoop=1;jettySize=auto;html=1;" parent="27N3MjeAmNyUa1S-tsTZ-1" source="F6eTnZbCmIIg6JIoKb2p-9" target="ZZN0KIGfFMa9tZdwRJfm-2" edge="1">
          <mxGeometry relative="1" as="geometry">
            <Array as="points">
              <mxPoint x="90.5" y="550" />
              <mxPoint x="229.5" y="550" />
            </Array>
          </mxGeometry>
        </mxCell>
        <mxCell id="ZZN0KIGfFMa9tZdwRJfm-10" style="edgeStyle=orthogonalEdgeStyle;rounded=0;orthogonalLoop=1;jettySize=auto;html=1;" parent="27N3MjeAmNyUa1S-tsTZ-1" source="F6eTnZbCmIIg6JIoKb2p-9" target="ZZN0KIGfFMa9tZdwRJfm-3" edge="1">
          <mxGeometry relative="1" as="geometry">
            <Array as="points">
              <mxPoint x="90.5" y="550" />
              <mxPoint x="369.5" y="550" />
            </Array>
          </mxGeometry>
        </mxCell>
        <mxCell id="ZZN0KIGfFMa9tZdwRJfm-11" style="edgeStyle=orthogonalEdgeStyle;rounded=0;orthogonalLoop=1;jettySize=auto;html=1;" parent="27N3MjeAmNyUa1S-tsTZ-1" source="F6eTnZbCmIIg6JIoKb2p-9" target="ZZN0KIGfFMa9tZdwRJfm-4" edge="1">
          <mxGeometry relative="1" as="geometry">
            <Array as="points">
              <mxPoint x="90.5" y="550" />
              <mxPoint x="511.5" y="550" />
            </Array>
          </mxGeometry>
        </mxCell>
        <mxCell id="ZZN0KIGfFMa9tZdwRJfm-12" style="edgeStyle=orthogonalEdgeStyle;rounded=0;orthogonalLoop=1;jettySize=auto;html=1;" parent="27N3MjeAmNyUa1S-tsTZ-1" source="F6eTnZbCmIIg6JIoKb2p-9" target="ZZN0KIGfFMa9tZdwRJfm-5" edge="1">
          <mxGeometry relative="1" as="geometry">
            <Array as="points">
              <mxPoint x="90.5" y="550" />
              <mxPoint x="229.5" y="550" />
            </Array>
          </mxGeometry>
        </mxCell>
        <mxCell id="ZZN0KIGfFMa9tZdwRJfm-14" style="edgeStyle=orthogonalEdgeStyle;rounded=0;orthogonalLoop=1;jettySize=auto;html=1;" parent="27N3MjeAmNyUa1S-tsTZ-1" source="F6eTnZbCmIIg6JIoKb2p-9" target="ZZN0KIGfFMa9tZdwRJfm-7" edge="1">
          <mxGeometry relative="1" as="geometry">
            <Array as="points">
              <mxPoint x="90.5" y="550" />
              <mxPoint x="511.5" y="550" />
            </Array>
          </mxGeometry>
        </mxCell>
        <mxCell id="F6eTnZbCmIIg6JIoKb2p-25" value="CDK DEPLOY" style="edgeStyle=none;html=1;labelBackgroundColor=none;fontColor=#000000;strokeColor=#000000;" parent="27N3MjeAmNyUa1S-tsTZ-1" edge="1">
          <mxGeometry x="-0.3947" y="15" relative="1" as="geometry">
            <mxPoint x="52" y="119" as="targetPoint" />
            <mxPoint as="offset" />
            <mxPoint x="-120.07503457121675" y="119" as="sourcePoint" />
          </mxGeometry>
        </mxCell>
        <mxCell id="JMm2x3wjYouqydZUCCx--1" value="AWS Cost &lt;br&gt;Allocation Tagging" style="sketch=0;points=[[0,0,0],[0.25,0,0],[0.5,0,0],[0.75,0,0],[1,0,0],[0,1,0],[0.25,1,0],[0.5,1,0],[0.75,1,0],[1,1,0],[0,0.25,0],[0,0.5,0],[0,0.75,0],[1,0.25,0],[1,0.5,0],[1,0.75,0]];outlineConnect=0;fontColor=#232F3E;gradientColor=#60A337;gradientDirection=north;fillColor=#277116;strokeColor=#ffffff;dashed=0;verticalLabelPosition=bottom;verticalAlign=top;align=center;html=1;fontSize=12;fontStyle=0;aspect=fixed;shape=mxgraph.aws4.resourceIcon;resIcon=mxgraph.aws4.cost_and_usage_report;" parent="F6eTnZbCmIIg6JIoKb2p-6" vertex="1">
          <mxGeometry x="680" y="228" width="78" height="78" as="geometry" />
        </mxCell>
        <mxCell id="JMm2x3wjYouqydZUCCx--4" style="edgeStyle=orthogonalEdgeStyle;rounded=0;orthogonalLoop=1;jettySize=auto;html=1;" parent="F6eTnZbCmIIg6JIoKb2p-6" source="F6eTnZbCmIIg6JIoKb2p-1" target="JMm2x3wjYouqydZUCCx--1" edge="1">
          <mxGeometry relative="1" as="geometry">
            <Array as="points">
              <mxPoint x="550" y="267" />
              <mxPoint x="550" y="267" />
            </Array>
          </mxGeometry>
        </mxCell>
        <mxCell id="JMm2x3wjYouqydZUCCx--3" style="edgeStyle=orthogonalEdgeStyle;rounded=0;orthogonalLoop=1;jettySize=auto;html=1;" parent="F6eTnZbCmIIg6JIoKb2p-6" source="F6eTnZbCmIIg6JIoKb2p-2" target="JMm2x3wjYouqydZUCCx--1" edge="1">
          <mxGeometry relative="1" as="geometry">
            <Array as="points">
              <mxPoint x="719" y="620" />
            </Array>
          </mxGeometry>
        </mxCell>
        <mxCell id="F6eTnZbCmIIg6JIoKb2p-26" value="admin" style="sketch=0;outlineConnect=0;gradientColor=none;fontColor=#545B64;strokeColor=none;fillColor=#879196;dashed=0;verticalLabelPosition=bottom;verticalAlign=top;align=center;html=1;fontSize=12;fontStyle=0;aspect=fixed;shape=mxgraph.aws4.illustration_users;pointerEvents=1;labelBackgroundColor=none;" parent="1" vertex="1">
          <mxGeometry x="40" y="-670" width="78" height="78" as="geometry" />
        </mxCell>
      </root>
    </mxGraphModel>
  </diagram>
  <diagram name="infra-multi-mode" id="NUsFj8FOxAwIzA1jutGw">
    <mxGraphModel dx="1314" dy="2051" grid="1" gridSize="10" guides="1" tooltips="1" connect="1" arrows="1" fold="1" page="1" pageScale="1" pageWidth="1100" pageHeight="850" math="0" shadow="0">
      <root>
        <mxCell id="350u1gIlO2RbiJCGN0dt-0" />
        <mxCell id="350u1gIlO2RbiJCGN0dt-1" parent="350u1gIlO2RbiJCGN0dt-0" />
        <mxCell id="350u1gIlO2RbiJCGN0dt-2" value="Region" style="points=[[0,0],[0.25,0],[0.5,0],[0.75,0],[1,0],[1,0.25],[1,0.5],[1,0.75],[1,1],[0.75,1],[0.5,1],[0.25,1],[0,1],[0,0.75],[0,0.5],[0,0.25]];outlineConnect=0;gradientColor=none;html=1;whiteSpace=wrap;fontSize=12;fontStyle=0;container=1;pointerEvents=0;collapsible=0;recursiveResize=0;shape=mxgraph.aws4.group;grIcon=mxgraph.aws4.group_region;strokeColor=#147EBA;fillColor=none;verticalAlign=top;align=left;spacingLeft=30;fontColor=#147EBA;dashed=1;" parent="350u1gIlO2RbiJCGN0dt-1" vertex="1">
          <mxGeometry x="100" y="-770" width="540" height="560" as="geometry" />
        </mxCell>
        <mxCell id="350u1gIlO2RbiJCGN0dt-3" value="AWS Cloud" style="points=[[0,0],[0.25,0],[0.5,0],[0.75,0],[1,0],[1,0.25],[1,0.5],[1,0.75],[1,1],[0.75,1],[0.5,1],[0.25,1],[0,1],[0,0.75],[0,0.5],[0,0.25]];outlineConnect=0;gradientColor=none;html=1;whiteSpace=wrap;fontSize=12;fontStyle=0;container=1;pointerEvents=0;collapsible=0;recursiveResize=0;shape=mxgraph.aws4.group;grIcon=mxgraph.aws4.group_aws_cloud_alt;strokeColor=#232F3E;fillColor=none;verticalAlign=top;align=left;spacingLeft=30;fontColor=#232F3E;dashed=0;" parent="350u1gIlO2RbiJCGN0dt-1" vertex="1">
          <mxGeometry x="80" y="-800" width="580" height="610" as="geometry" />
        </mxCell>
        <mxCell id="jOza9lC0v2jdpPAKd3F9-41" style="edgeStyle=orthogonalEdgeStyle;rounded=0;orthogonalLoop=1;jettySize=auto;html=1;entryX=0.5;entryY=0;entryDx=0;entryDy=0;entryPerimeter=0;" parent="350u1gIlO2RbiJCGN0dt-3" source="jOza9lC0v2jdpPAKd3F9-30" target="lRGHmABgb_aMYPYN4Wb4-0" edge="1">
          <mxGeometry relative="1" as="geometry" />
        </mxCell>
        <mxCell id="jOza9lC0v2jdpPAKd3F9-30" value="SIF Environment" style="points=[[0,0],[0.25,0],[0.5,0],[0.75,0],[1,0],[1,0.25],[1,0.5],[1,0.75],[1,1],[0.75,1],[0.5,1],[0.25,1],[0,1],[0,0.75],[0,0.5],[0,0.25]];outlineConnect=0;gradientColor=none;html=1;whiteSpace=wrap;fontSize=12;fontStyle=0;container=1;pointerEvents=0;collapsible=0;recursiveResize=0;shape=mxgraph.aws4.group;grIcon=mxgraph.aws4.group_security_group;grStroke=0;strokeColor=#147EBA;fillColor=#E6F2F8;verticalAlign=top;align=left;spacingLeft=30;fontColor=#147EBA;dashed=0;" parent="350u1gIlO2RbiJCGN0dt-3" vertex="1">
          <mxGeometry x="40" y="71" width="500" height="350" as="geometry" />
        </mxCell>
        <mxCell id="jOza9lC0v2jdpPAKd3F9-33" value="SIF&lt;br style=&quot;border-color: var(--border-color);&quot;&gt;Instance 4" style="sketch=0;points=[[0,0,0],[0.25,0,0],[0.5,0,0],[0.75,0,0],[1,0,0],[0,1,0],[0.25,1,0],[0.5,1,0],[0.75,1,0],[1,1,0],[0,0.25,0],[0,0.5,0],[0,0.75,0],[1,0.25,0],[1,0.5,0],[1,0.75,0]];gradientDirection=north;outlineConnect=0;fontColor=#232F3E;gradientColor=#505863;fillColor=#1E262E;strokeColor=#ffffff;dashed=0;verticalLabelPosition=bottom;verticalAlign=top;align=center;html=1;fontSize=12;fontStyle=0;aspect=fixed;shape=mxgraph.aws4.resourceIcon;resIcon=mxgraph.aws4.general;" parent="jOza9lC0v2jdpPAKd3F9-30" vertex="1">
          <mxGeometry x="390" y="220" width="78" height="78" as="geometry" />
        </mxCell>
        <mxCell id="jOza9lC0v2jdpPAKd3F9-35" value="SIF&lt;br&gt;Instance 1" style="sketch=0;points=[[0,0,0],[0.25,0,0],[0.5,0,0],[0.75,0,0],[1,0,0],[0,1,0],[0.25,1,0],[0.5,1,0],[0.75,1,0],[1,1,0],[0,0.25,0],[0,0.5,0],[0,0.75,0],[1,0.25,0],[1,0.5,0],[1,0.75,0]];gradientDirection=north;outlineConnect=0;fontColor=#232F3E;gradientColor=#505863;fillColor=#1E262E;strokeColor=#ffffff;dashed=0;verticalLabelPosition=bottom;verticalAlign=top;align=center;html=1;fontSize=12;fontStyle=0;aspect=fixed;shape=mxgraph.aws4.resourceIcon;resIcon=mxgraph.aws4.general;" parent="jOza9lC0v2jdpPAKd3F9-30" vertex="1">
          <mxGeometry x="30" y="220" width="78" height="78" as="geometry" />
        </mxCell>
        <mxCell id="jOza9lC0v2jdpPAKd3F9-37" value="SIF&lt;br style=&quot;border-color: var(--border-color);&quot;&gt;Instance 2" style="sketch=0;points=[[0,0,0],[0.25,0,0],[0.5,0,0],[0.75,0,0],[1,0,0],[0,1,0],[0.25,1,0],[0.5,1,0],[0.75,1,0],[1,1,0],[0,0.25,0],[0,0.5,0],[0,0.75,0],[1,0.25,0],[1,0.5,0],[1,0.75,0]];gradientDirection=north;outlineConnect=0;fontColor=#232F3E;gradientColor=#505863;fillColor=#1E262E;strokeColor=#ffffff;dashed=0;verticalLabelPosition=bottom;verticalAlign=top;align=center;html=1;fontSize=12;fontStyle=0;aspect=fixed;shape=mxgraph.aws4.resourceIcon;resIcon=mxgraph.aws4.general;" parent="jOza9lC0v2jdpPAKd3F9-30" vertex="1">
          <mxGeometry x="150" y="220" width="78" height="78" as="geometry" />
        </mxCell>
        <mxCell id="jOza9lC0v2jdpPAKd3F9-39" value="SIF&lt;br style=&quot;border-color: var(--border-color);&quot;&gt;Instance 3" style="sketch=0;points=[[0,0,0],[0.25,0,0],[0.5,0,0],[0.75,0,0],[1,0,0],[0,1,0],[0.25,1,0],[0.5,1,0],[0.75,1,0],[1,1,0],[0,0.25,0],[0,0.5,0],[0,0.75,0],[1,0.25,0],[1,0.5,0],[1,0.75,0]];gradientDirection=north;outlineConnect=0;fontColor=#232F3E;gradientColor=#505863;fillColor=#1E262E;strokeColor=#ffffff;dashed=0;verticalLabelPosition=bottom;verticalAlign=top;align=center;html=1;fontSize=12;fontStyle=0;aspect=fixed;shape=mxgraph.aws4.resourceIcon;resIcon=mxgraph.aws4.general;" parent="jOza9lC0v2jdpPAKd3F9-30" vertex="1">
          <mxGeometry x="268" y="220" width="78" height="78" as="geometry" />
        </mxCell>
        <mxCell id="jOza9lC0v2jdpPAKd3F9-40" value="Shared SIF&lt;br&gt;Environment&lt;br&gt;Infrastructure" style="sketch=0;points=[[0,0,0],[0.25,0,0],[0.5,0,0],[0.75,0,0],[1,0,0],[0,1,0],[0.25,1,0],[0.5,1,0],[0.75,1,0],[1,1,0],[0,0.25,0],[0,0.5,0],[0,0.75,0],[1,0.25,0],[1,0.5,0],[1,0.75,0]];gradientDirection=north;outlineConnect=0;fontColor=#232F3E;gradientColor=#505863;fillColor=#1E262E;strokeColor=#ffffff;dashed=0;verticalLabelPosition=bottom;verticalAlign=top;align=center;html=1;fontSize=12;fontStyle=0;aspect=fixed;shape=mxgraph.aws4.resourceIcon;resIcon=mxgraph.aws4.general;" parent="jOza9lC0v2jdpPAKd3F9-30" vertex="1">
          <mxGeometry x="210.75" y="40" width="78" height="78" as="geometry" />
        </mxCell>
        <mxCell id="jOza9lC0v2jdpPAKd3F9-32" style="edgeStyle=orthogonalEdgeStyle;rounded=0;orthogonalLoop=1;jettySize=auto;html=1;" parent="jOza9lC0v2jdpPAKd3F9-30" source="jOza9lC0v2jdpPAKd3F9-33" target="jOza9lC0v2jdpPAKd3F9-40" edge="1">
          <mxGeometry relative="1" as="geometry">
            <Array as="points">
              <mxPoint x="429" y="70" />
            </Array>
          </mxGeometry>
        </mxCell>
        <mxCell id="jOza9lC0v2jdpPAKd3F9-34" style="edgeStyle=orthogonalEdgeStyle;rounded=0;orthogonalLoop=1;jettySize=auto;html=1;" parent="jOza9lC0v2jdpPAKd3F9-30" source="jOza9lC0v2jdpPAKd3F9-35" target="jOza9lC0v2jdpPAKd3F9-40" edge="1">
          <mxGeometry relative="1" as="geometry">
            <Array as="points">
              <mxPoint x="69" y="70" />
            </Array>
          </mxGeometry>
        </mxCell>
        <mxCell id="jOza9lC0v2jdpPAKd3F9-36" style="edgeStyle=orthogonalEdgeStyle;rounded=0;orthogonalLoop=1;jettySize=auto;html=1;" parent="jOza9lC0v2jdpPAKd3F9-30" source="jOza9lC0v2jdpPAKd3F9-37" target="jOza9lC0v2jdpPAKd3F9-40" edge="1">
          <mxGeometry relative="1" as="geometry">
            <Array as="points">
              <mxPoint x="189" y="100" />
            </Array>
          </mxGeometry>
        </mxCell>
        <mxCell id="jOza9lC0v2jdpPAKd3F9-38" style="edgeStyle=orthogonalEdgeStyle;rounded=0;orthogonalLoop=1;jettySize=auto;html=1;" parent="jOza9lC0v2jdpPAKd3F9-30" source="jOza9lC0v2jdpPAKd3F9-39" target="jOza9lC0v2jdpPAKd3F9-40" edge="1">
          <mxGeometry relative="1" as="geometry">
            <Array as="points">
              <mxPoint x="307" y="100" />
            </Array>
          </mxGeometry>
        </mxCell>
        <mxCell id="lRGHmABgb_aMYPYN4Wb4-0" value="AWS Cost&lt;br&gt;Allocation Tagging" style="sketch=0;points=[[0,0,0],[0.25,0,0],[0.5,0,0],[0.75,0,0],[1,0,0],[0,1,0],[0.25,1,0],[0.5,1,0],[0.75,1,0],[1,1,0],[0,0.25,0],[0,0.5,0],[0,0.75,0],[1,0.25,0],[1,0.5,0],[1,0.75,0]];outlineConnect=0;fontColor=#232F3E;gradientColor=#60A337;gradientDirection=north;fillColor=#277116;strokeColor=#ffffff;dashed=0;verticalLabelPosition=bottom;verticalAlign=top;align=center;html=1;fontSize=12;fontStyle=0;aspect=fixed;shape=mxgraph.aws4.resourceIcon;resIcon=mxgraph.aws4.cost_and_usage_report;" parent="350u1gIlO2RbiJCGN0dt-3" vertex="1">
          <mxGeometry x="251" y="461" width="78" height="78" as="geometry" />
        </mxCell>
      </root>
    </mxGraphModel>
  </diagram>
  <diagram name="infra-multi-shared-mode" id="zTDkRDGCN-u6K9h6Lth9">
    <mxGraphModel dx="1314" dy="2051" grid="1" gridSize="10" guides="1" tooltips="1" connect="1" arrows="1" fold="1" page="1" pageScale="1" pageWidth="1100" pageHeight="850" math="0" shadow="0">
      <root>
        <mxCell id="44HJ4nHxx3dOVad5Fewg-0" />
        <mxCell id="44HJ4nHxx3dOVad5Fewg-1" parent="44HJ4nHxx3dOVad5Fewg-0" />
        <mxCell id="44HJ4nHxx3dOVad5Fewg-2" value="Region" style="points=[[0,0],[0.25,0],[0.5,0],[0.75,0],[1,0],[1,0.25],[1,0.5],[1,0.75],[1,1],[0.75,1],[0.5,1],[0.25,1],[0,1],[0,0.75],[0,0.5],[0,0.25]];outlineConnect=0;gradientColor=none;html=1;whiteSpace=wrap;fontSize=12;fontStyle=0;container=1;pointerEvents=0;collapsible=0;recursiveResize=0;shape=mxgraph.aws4.group;grIcon=mxgraph.aws4.group_region;strokeColor=#147EBA;fillColor=none;verticalAlign=top;align=left;spacingLeft=30;fontColor=#147EBA;dashed=1;" parent="44HJ4nHxx3dOVad5Fewg-1" vertex="1">
          <mxGeometry x="100" y="-770" width="680" height="650" as="geometry" />
        </mxCell>
        <mxCell id="44HJ4nHxx3dOVad5Fewg-3" value="AWS Cloud" style="points=[[0,0],[0.25,0],[0.5,0],[0.75,0],[1,0],[1,0.25],[1,0.5],[1,0.75],[1,1],[0.75,1],[0.5,1],[0.25,1],[0,1],[0,0.75],[0,0.5],[0,0.25]];outlineConnect=0;gradientColor=none;html=1;whiteSpace=wrap;fontSize=12;fontStyle=0;container=1;pointerEvents=0;collapsible=0;recursiveResize=0;shape=mxgraph.aws4.group;grIcon=mxgraph.aws4.group_aws_cloud_alt;strokeColor=#232F3E;fillColor=none;verticalAlign=top;align=left;spacingLeft=30;fontColor=#232F3E;dashed=0;" parent="44HJ4nHxx3dOVad5Fewg-1" vertex="1">
          <mxGeometry x="80" y="-800" width="720" height="700" as="geometry" />
        </mxCell>
        <mxCell id="Z8Ouqm-0Su6cVOFvpMFH-0" value="SIF Environment" style="points=[[0,0],[0.25,0],[0.5,0],[0.75,0],[1,0],[1,0.25],[1,0.5],[1,0.75],[1,1],[0.75,1],[0.5,1],[0.25,1],[0,1],[0,0.75],[0,0.5],[0,0.25]];outlineConnect=0;gradientColor=none;html=1;whiteSpace=wrap;fontSize=12;fontStyle=0;container=1;pointerEvents=0;collapsible=0;recursiveResize=0;shape=mxgraph.aws4.group;grIcon=mxgraph.aws4.group_security_group;grStroke=0;strokeColor=#147EBA;fillColor=#E6F2F8;verticalAlign=top;align=left;spacingLeft=30;fontColor=#147EBA;dashed=0;" parent="44HJ4nHxx3dOVad5Fewg-3" vertex="1">
          <mxGeometry x="50" y="75" width="470" height="585" as="geometry" />
        </mxCell>
        <mxCell id="44HJ4nHxx3dOVad5Fewg-6" value="SIF&lt;br style=&quot;border-color: var(--border-color);&quot;&gt;Instance 4" style="sketch=0;points=[[0,0,0],[0.25,0,0],[0.5,0,0],[0.75,0,0],[1,0,0],[0,1,0],[0.25,1,0],[0.5,1,0],[0.75,1,0],[1,1,0],[0,0.25,0],[0,0.5,0],[0,0.75,0],[1,0.25,0],[1,0.5,0],[1,0.75,0]];gradientDirection=north;outlineConnect=0;fontColor=#232F3E;gradientColor=#505863;fillColor=#1E262E;strokeColor=#ffffff;dashed=0;verticalLabelPosition=bottom;verticalAlign=top;align=center;html=1;fontSize=12;fontStyle=0;aspect=fixed;shape=mxgraph.aws4.resourceIcon;resIcon=mxgraph.aws4.general;" parent="Z8Ouqm-0Su6cVOFvpMFH-0" vertex="1">
          <mxGeometry x="196" y="465" width="78" height="78" as="geometry" />
        </mxCell>
        <mxCell id="44HJ4nHxx3dOVad5Fewg-10" value="SIF&lt;br style=&quot;border-color: var(--border-color);&quot;&gt;Instance 2" style="sketch=0;points=[[0,0,0],[0.25,0,0],[0.5,0,0],[0.75,0,0],[1,0,0],[0,1,0],[0.25,1,0],[0.5,1,0],[0.75,1,0],[1,1,0],[0,0.25,0],[0,0.5,0],[0,0.75,0],[1,0.25,0],[1,0.5,0],[1,0.75,0]];gradientDirection=north;outlineConnect=0;fontColor=#232F3E;gradientColor=#505863;fillColor=#1E262E;strokeColor=#ffffff;dashed=0;verticalLabelPosition=bottom;verticalAlign=top;align=center;html=1;fontSize=12;fontStyle=0;aspect=fixed;shape=mxgraph.aws4.resourceIcon;resIcon=mxgraph.aws4.general;" parent="Z8Ouqm-0Su6cVOFvpMFH-0" vertex="1">
          <mxGeometry x="196" y="215" width="78" height="78" as="geometry" />
        </mxCell>
        <mxCell id="44HJ4nHxx3dOVad5Fewg-12" value="SIF&lt;br style=&quot;border-color: var(--border-color);&quot;&gt;Instance 3" style="sketch=0;points=[[0,0,0],[0.25,0,0],[0.5,0,0],[0.75,0,0],[1,0,0],[0,1,0],[0.25,1,0],[0.5,1,0],[0.75,1,0],[1,1,0],[0,0.25,0],[0,0.5,0],[0,0.75,0],[1,0.25,0],[1,0.5,0],[1,0.75,0]];gradientDirection=north;outlineConnect=0;fontColor=#232F3E;gradientColor=#505863;fillColor=#1E262E;strokeColor=#ffffff;dashed=0;verticalLabelPosition=bottom;verticalAlign=top;align=center;html=1;fontSize=12;fontStyle=0;aspect=fixed;shape=mxgraph.aws4.resourceIcon;resIcon=mxgraph.aws4.general;" parent="Z8Ouqm-0Su6cVOFvpMFH-0" vertex="1">
          <mxGeometry x="196" y="345" width="78" height="78" as="geometry" />
        </mxCell>
        <mxCell id="44HJ4nHxx3dOVad5Fewg-13" value="Shared SIF&lt;br style=&quot;border-color: var(--border-color);&quot;&gt;Environment&lt;br style=&quot;border-color: var(--border-color);&quot;&gt;Infrastructure" style="sketch=0;points=[[0,0,0],[0.25,0,0],[0.5,0,0],[0.75,0,0],[1,0,0],[0,1,0],[0.25,1,0],[0.5,1,0],[0.75,1,0],[1,1,0],[0,0.25,0],[0,0.5,0],[0,0.75,0],[1,0.25,0],[1,0.5,0],[1,0.75,0]];gradientDirection=north;outlineConnect=0;fontColor=#232F3E;gradientColor=#505863;fillColor=#1E262E;strokeColor=#ffffff;dashed=0;verticalLabelPosition=bottom;verticalAlign=top;align=center;html=1;fontSize=12;fontStyle=0;aspect=fixed;shape=mxgraph.aws4.resourceIcon;resIcon=mxgraph.aws4.general;" parent="Z8Ouqm-0Su6cVOFvpMFH-0" vertex="1">
          <mxGeometry x="196" y="35" width="78" height="78" as="geometry" />
        </mxCell>
        <mxCell id="44HJ4nHxx3dOVad5Fewg-5" style="edgeStyle=orthogonalEdgeStyle;rounded=0;orthogonalLoop=1;jettySize=auto;html=1;" parent="Z8Ouqm-0Su6cVOFvpMFH-0" source="44HJ4nHxx3dOVad5Fewg-6" target="44HJ4nHxx3dOVad5Fewg-13" edge="1">
          <mxGeometry relative="1" as="geometry">
            <Array as="points">
              <mxPoint x="429" y="504" />
              <mxPoint x="429" y="55" />
            </Array>
          </mxGeometry>
        </mxCell>
        <mxCell id="44HJ4nHxx3dOVad5Fewg-9" style="edgeStyle=orthogonalEdgeStyle;rounded=0;orthogonalLoop=1;jettySize=auto;html=1;" parent="Z8Ouqm-0Su6cVOFvpMFH-0" source="44HJ4nHxx3dOVad5Fewg-10" target="44HJ4nHxx3dOVad5Fewg-13" edge="1">
          <mxGeometry relative="1" as="geometry">
            <Array as="points">
              <mxPoint x="350" y="254" />
              <mxPoint x="350" y="95" />
            </Array>
          </mxGeometry>
        </mxCell>
        <mxCell id="44HJ4nHxx3dOVad5Fewg-11" style="edgeStyle=orthogonalEdgeStyle;rounded=0;orthogonalLoop=1;jettySize=auto;html=1;" parent="Z8Ouqm-0Su6cVOFvpMFH-0" source="44HJ4nHxx3dOVad5Fewg-12" target="44HJ4nHxx3dOVad5Fewg-13" edge="1">
          <mxGeometry relative="1" as="geometry">
            <Array as="points">
              <mxPoint x="390" y="384" />
              <mxPoint x="390" y="75" />
            </Array>
          </mxGeometry>
        </mxCell>
        <mxCell id="9nHisRsIwdz7PoFPSUY6-1" style="edgeStyle=orthogonalEdgeStyle;rounded=0;orthogonalLoop=1;jettySize=auto;html=1;entryX=0;entryY=0.5;entryDx=0;entryDy=0;entryPerimeter=0;" parent="44HJ4nHxx3dOVad5Fewg-3" source="Z8Ouqm-0Su6cVOFvpMFH-0" target="9nHisRsIwdz7PoFPSUY6-0" edge="1">
          <mxGeometry relative="1" as="geometry">
            <mxPoint x="520" y="365" as="sourcePoint" />
          </mxGeometry>
        </mxCell>
        <mxCell id="bJgNNo13elUNNyGm6n_I-4" style="edgeStyle=orthogonalEdgeStyle;rounded=0;orthogonalLoop=1;jettySize=auto;html=1;" parent="44HJ4nHxx3dOVad5Fewg-3" source="44HJ4nHxx3dOVad5Fewg-6" target="44HJ4nHxx3dOVad5Fewg-8" edge="1">
          <mxGeometry relative="1" as="geometry">
            <Array as="points">
              <mxPoint x="90" y="579" />
            </Array>
          </mxGeometry>
        </mxCell>
        <mxCell id="44HJ4nHxx3dOVad5Fewg-7" style="edgeStyle=orthogonalEdgeStyle;rounded=0;orthogonalLoop=1;jettySize=auto;html=1;" parent="44HJ4nHxx3dOVad5Fewg-3" source="44HJ4nHxx3dOVad5Fewg-8" target="44HJ4nHxx3dOVad5Fewg-13" edge="1">
          <mxGeometry relative="1" as="geometry">
            <Array as="points">
              <mxPoint x="119" y="140" />
            </Array>
          </mxGeometry>
        </mxCell>
        <mxCell id="44HJ4nHxx3dOVad5Fewg-8" value="SIF&lt;br style=&quot;border-color: var(--border-color);&quot;&gt;Instance 1" style="sketch=0;points=[[0,0,0],[0.25,0,0],[0.5,0,0],[0.75,0,0],[1,0,0],[0,1,0],[0.25,1,0],[0.5,1,0],[0.75,1,0],[1,1,0],[0,0.25,0],[0,0.5,0],[0,0.75,0],[1,0.25,0],[1,0.5,0],[1,0.75,0]];gradientDirection=north;outlineConnect=0;fontColor=#232F3E;gradientColor=#505863;fillColor=#1E262E;strokeColor=#ffffff;dashed=0;verticalLabelPosition=bottom;verticalAlign=top;align=center;html=1;fontSize=12;fontStyle=0;aspect=fixed;shape=mxgraph.aws4.resourceIcon;resIcon=mxgraph.aws4.general;" parent="44HJ4nHxx3dOVad5Fewg-3" vertex="1">
          <mxGeometry x="80" y="290" width="78" height="78" as="geometry" />
        </mxCell>
        <mxCell id="bJgNNo13elUNNyGm6n_I-2" style="edgeStyle=orthogonalEdgeStyle;rounded=0;orthogonalLoop=1;jettySize=auto;html=1;" parent="44HJ4nHxx3dOVad5Fewg-3" source="44HJ4nHxx3dOVad5Fewg-10" target="44HJ4nHxx3dOVad5Fewg-8" edge="1">
          <mxGeometry relative="1" as="geometry" />
        </mxCell>
        <mxCell id="bJgNNo13elUNNyGm6n_I-3" style="edgeStyle=orthogonalEdgeStyle;rounded=0;orthogonalLoop=1;jettySize=auto;html=1;" parent="44HJ4nHxx3dOVad5Fewg-3" source="44HJ4nHxx3dOVad5Fewg-12" target="44HJ4nHxx3dOVad5Fewg-8" edge="1">
          <mxGeometry relative="1" as="geometry">
            <Array as="points">
              <mxPoint x="150" y="459" />
            </Array>
          </mxGeometry>
        </mxCell>
        <mxCell id="9nHisRsIwdz7PoFPSUY6-0" value="AWS Cost&lt;br&gt;Allocation Tagging" style="sketch=0;points=[[0,0,0],[0.25,0,0],[0.5,0,0],[0.75,0,0],[1,0,0],[0,1,0],[0.25,1,0],[0.5,1,0],[0.75,1,0],[1,1,0],[0,0.25,0],[0,0.5,0],[0,0.75,0],[1,0.25,0],[1,0.5,0],[1,0.75,0]];outlineConnect=0;fontColor=#232F3E;gradientColor=#60A337;gradientDirection=north;fillColor=#277116;strokeColor=#ffffff;dashed=0;verticalLabelPosition=bottom;verticalAlign=top;align=center;html=1;fontSize=12;fontStyle=0;aspect=fixed;shape=mxgraph.aws4.resourceIcon;resIcon=mxgraph.aws4.cost_and_usage_report;" parent="44HJ4nHxx3dOVad5Fewg-3" vertex="1">
          <mxGeometry x="590" y="328.5" width="78" height="78" as="geometry" />
        </mxCell>
      </root>
    </mxGraphModel>
  </diagram>
</mxfile>
